{
    "asset" : {
        "generator" : "Khronos glTF Blender I/O v1.7.33",
        "version" : "2.0"
    },
    "extensionsUsed" : [
        "KHR_texture_transform"
    ],
    "extensionsRequired" : [
        "KHR_texture_transform"
    ],
    "scene" : 0,
    "scenes" : [
        {
            "name" : "Scene",
            "nodes" : [
                0,
                1,
                2,
                3
            ]
        }
    ],
    "nodes" : [
        {
            "mesh" : 0,
            "name" : "Wall_1"
        },
        {
            "mesh" : 1,
            "name" : "Wall_2"
        },
        {
            "mesh" : 2,
            "name" : "Wall_3"
        },
        {
            "mesh" : 3,
            "name" : "Wall_4"
        }
    ],
    "materials" : [
        {
            "doubleSided" : true,
            "name" : "cave_wall_01",
            "normalTexture" : {
                "extensions" : {
                    "KHR_texture_transform" : {
                        "offset" : [
                            0,
                            -1
                        ]
                    }
                },
                "index" : 0
            },
            "pbrMetallicRoughness" : {
                "baseColorTexture" : {
                    "extensions" : {
                        "KHR_texture_transform" : {
                            "offset" : [
                                0,
                                -1
                            ]
                        }
                    },
                    "index" : 1
                },
                "metallicFactor" : 0,
                "metallicRoughnessTexture" : {
                    "extensions" : {
                        "KHR_texture_transform" : {
                            "offset" : [
                                0,
                                -1
                            ]
                        }
                    },
                    "index" : 2
                }
            }
        }
    ],
    "meshes" : [
        {
            "name" : "1",
            "primitives" : [
                {
                    "attributes" : {
                        "POSITION" : 0,
                        "NORMAL" : 1,
                        "TEXCOORD_0" : 2
                    },
                    "indices" : 3,
                    "material" : 0
                }
            ]
        },
        {
            "name" : "2",
            "primitives" : [
                {
                    "attributes" : {
                        "POSITION" : 4,
                        "NORMAL" : 5,
                        "TEXCOORD_0" : 6
                    },
                    "indices" : 7,
                    "material" : 0
                }
            ]
        },
        {
            "name" : "3",
            "primitives" : [
                {
                    "attributes" : {
                        "POSITION" : 8,
                        "NORMAL" : 9,
                        "TEXCOORD_0" : 10
                    },
                    "indices" : 11,
                    "material" : 0
                }
            ]
        },
        {
            "name" : "4",
            "primitives" : [
                {
                    "attributes" : {
                        "POSITION" : 12,
                        "NORMAL" : 13,
                        "TEXCOORD_0" : 14
                    },
                    "indices" : 15,
                    "material" : 0
                }
            ]
        }
    ],
    "textures" : [
        {
            "sampler" : 0,
            "source" : 0
        },
        {
            "sampler" : 0,
            "source" : 1
        },
        {
            "sampler" : 0,
            "source" : 2
        }
    ],
    "images" : [
        {
            "bufferView" : 4,
            "mimeType" : "image/jpeg",
            "name" : "cave_walls_Normal"
        },
        {
            "bufferView" : 5,
            "mimeType" : "image/jpeg",
            "name" : "cave_walls_BaseColor"
        },
        {
            "bufferView" : 6,
            "mimeType" : "image/png",
            "name" : "cave_walls_Roughness"
        }
    ],
    "accessors" : [
        {
            "bufferView" : 0,
            "componentType" : 5126,
            "count" : 445,
            "max" : [
                1.8677136898040771,
                -0.14999958872795105,
                2.7172253131866455
            ],
            "min" : [
                -1.7326469421386719,
                -20,
                -2.7297275066375732
            ],
            "type" : "VEC3"
        },
        {
            "bufferView" : 1,
            "componentType" : 5126,
            "count" : 445,
            "type" : "VEC3"
        },
        {
            "bufferView" : 2,
            "componentType" : 5126,
            "count" : 445,
            "type" : "VEC2"
        },
        {
            "bufferView" : 3,
            "componentType" : 5123,
            "count" : 1782,
            "type" : "SCALAR"
        },
        {
            "bufferView" : 7,
            "componentType" : 5126,
            "count" : 453,
            "max" : [
                1.9175426959991455,
                -0.14999958872795105,
                2.7100772857666016
            ],
            "min" : [
                -1.7326469421386719,
                -20,
                -2.9522805213928223
            ],
            "type" : "VEC3"
        },
        {
            "bufferView" : 8,
            "componentType" : 5126,
            "count" : 453,
            "type" : "VEC3"
        },
        {
            "bufferView" : 9,
            "componentType" : 5126,
            "count" : 453,
            "type" : "VEC2"
        },
        {
            "bufferView" : 10,
            "componentType" : 5123,
            "count" : 1824,
            "type" : "SCALAR"
        },
        {
            "bufferView" : 11,
            "componentType" : 5126,
            "count" : 390,
            "max" : [
                1.7980756759643555,
                -0.14999958872795105,
                2.7100772857666016
            ],
            "min" : [
                -1.7326469421386719,
                -20,
                -2.5723607540130615
            ],
            "type" : "VEC3"
        },
        {
            "bufferView" : 12,
            "componentType" : 5126,
            "count" : 390,
            "type" : "VEC3"
        },
        {
            "bufferView" : 13,
            "componentType" : 5126,
            "count" : 390,
            "type" : "VEC2"
        },
        {
            "bufferView" : 14,
            "componentType" : 5123,
            "count" : 1638,
            "type" : "SCALAR"
        },
        {
            "bufferView" : 15,
            "componentType" : 5126,
            "count" : 392,
            "max" : [
                1.7850995063781738,
                -0.14999958872795105,
                2.7100772857666016
            ],
            "min" : [
                -1.7326469421386719,
                -20,
                -2.9522805213928223
            ],
            "type" : "VEC3"
        },
        {
            "bufferView" : 16,
            "componentType" : 5126,
            "count" : 392,
            "type" : "VEC3"
        },
        {
            "bufferView" : 17,
            "componentType" : 5126,
            "count" : 392,
            "type" : "VEC2"
        },
        {
            "bufferView" : 18,
            "componentType" : 5123,
            "count" : 1590,
            "type" : "SCALAR"
        }
    ],
    "bufferViews" : [
        {
            "buffer" : 0,
            "byteLength" : 5340,
            "byteOffset" : 0
        },
        {
            "buffer" : 0,
            "byteLength" : 5340,
            "byteOffset" : 5340
        },
        {
            "buffer" : 0,
            "byteLength" : 3560,
            "byteOffset" : 10680
        },
        {
            "buffer" : 0,
            "byteLength" : 3564,
            "byteOffset" : 14240
        },
        {
            "buffer" : 0,
            "byteLength" : 13417,
            "byteOffset" : 17804
        },
        {
            "buffer" : 0,
            "byteLength" : 141225,
            "byteOffset" : 31224
        },
        {
            "buffer" : 0,
            "byteLength" : 391618,
            "byteOffset" : 172452
        },
        {
            "buffer" : 0,
            "byteLength" : 5436,
            "byteOffset" : 564072
        },
        {
            "buffer" : 0,
            "byteLength" : 5436,
            "byteOffset" : 569508
        },
        {
            "buffer" : 0,
            "byteLength" : 3624,
            "byteOffset" : 574944
        },
        {
            "buffer" : 0,
            "byteLength" : 3648,
            "byteOffset" : 578568
        },
        {
            "buffer" : 0,
            "byteLength" : 4680,
            "byteOffset" : 582216
        },
        {
            "buffer" : 0,
            "byteLength" : 4680,
            "byteOffset" : 586896
        },
        {
            "buffer" : 0,
            "byteLength" : 3120,
            "byteOffset" : 591576
        },
        {
            "buffer" : 0,
            "byteLength" : 3276,
            "byteOffset" : 594696
        },
        {
            "buffer" : 0,
            "byteLength" : 4704,
            "byteOffset" : 597972
        },
        {
            "buffer" : 0,
            "byteLength" : 4704,
            "byteOffset" : 602676
        },
        {
            "buffer" : 0,
            "byteLength" : 3136,
            "byteOffset" : 607380
        },
        {
            "buffer" : 0,
            "byteLength" : 3180,
            "byteOffset" : 610516
        }
    ],
    "samplers" : [
        {
            "magFilter" : 9729,
            "minFilter" : 9987
        }
    ],
    "buffers" : [
        {
            "byteLength" : 613696,
            "uri" : "data:application/octet-stream;base64,"
        }
    ]
}
