{
	"accessors":[{
		"bufferView":0,
		"type":"SCALAR",
		"componentType":5123,
		"count":1782,
		"byteOffset":0,
		"min":[0],
		"max":[402]
	},
	{
		"bufferView":1,
		"type":"VEC3",
		"componentType":5126,
		"count":403,
		"byteOffset":0,
		"min":[-1.7326469421386719,
		-20.0,
		-2.729726791381836],
		"max":[1.8677138090133668,
		-0.15000000596046449,
		2.7172253131866457]
	},
	{
		"bufferView":1,
		"type":"VEC3",
		"componentType":5126,
		"count":403,
		"byteOffset":12,
		"min":[-0.9891834855079651,
		-0.9946436285972595,
		-0.999652624130249],
		"max":[0.9986670017242432,
		1.0,
		0.9991248846054077]
	},
	{
		"bufferView":1,
		"type":"VEC2",
		"componentType":5126,
		"count":403,
		"byteOffset":24,
		"min":[0.0,
		0.0],
		"max":[1.0,
		1.0]
	},
	{
		"bufferView":2,
		"type":"SCALAR",
		"componentType":5123,
		"count":1824,
		"byteOffset":0,
		"min":[0],
		"max":[403]
	},
	{
		"bufferView":3,
		"type":"VEC3",
		"componentType":5126,
		"count":404,
		"byteOffset":0,
		"min":[-1.7326469421386719,
		-20.0,
		-2.952279806137085],
		"max":[1.9175426959991456,
		-0.15000000596046449,
		2.71008038520813]
	},
	{
		"bufferView":3,
		"type":"VEC3",
		"componentType":5126,
		"count":404,
		"byteOffset":12,
		"min":[-0.9971933960914612,
		-0.9922997951507568,
		-0.9999564290046692],
		"max":[0.9998549818992615,
		1.0,
		0.9998283982276917]
	},
	{
		"bufferView":3,
		"type":"VEC2",
		"componentType":5126,
		"count":404,
		"byteOffset":24,
		"min":[0.0,
		0.0],
		"max":[1.0,
		1.0]
	},
	{
		"bufferView":4,
		"type":"SCALAR",
		"componentType":5123,
		"count":1638,
		"byteOffset":0,
		"min":[0],
		"max":[361]
	},
	{
		"bufferView":5,
		"type":"VEC3",
		"componentType":5126,
		"count":362,
		"byteOffset":0,
		"min":[-1.7326469421386719,
		-20.0,
		-2.5723607540130617],
		"max":[1.7980756759643555,
		-0.15000000596046449,
		2.71008038520813]
	},
	{
		"bufferView":5,
		"type":"VEC3",
		"componentType":5126,
		"count":362,
		"byteOffset":12,
		"min":[-0.970944344997406,
		-0.4266361892223358,
		-0.9996926188468933],
		"max":[0.9996931552886963,
		1.0,
		0.9984744787216187]
	},
	{
		"bufferView":5,
		"type":"VEC2",
		"componentType":5126,
		"count":362,
		"byteOffset":24,
		"min":[0.0,
		0.0],
		"max":[1.0,
		1.0]
	},
	{
		"bufferView":6,
		"type":"SCALAR",
		"componentType":5123,
		"count":1590,
		"byteOffset":0,
		"min":[0],
		"max":[358]
	},
	{
		"bufferView":7,
		"type":"VEC3",
		"componentType":5126,
		"count":359,
		"byteOffset":0,
		"min":[-1.7326469421386719,
		-20.0,
		-2.952279806137085],
		"max":[1.7850995063781739,
		-0.15000000596046449,
		2.71008038520813]
	},
	{
		"bufferView":7,
		"type":"VEC3",
		"componentType":5126,
		"count":359,
		"byteOffset":12,
		"min":[-0.9786592721939087,
		-0.5456579923629761,
		-0.9999564290046692],
		"max":[0.9998549818992615,
		1.0,
		0.9991248846054077]
	},
	{
		"bufferView":7,
		"type":"VEC2",
		"componentType":5126,
		"count":359,
		"byteOffset":24,
		"min":[0.0,
		0.0],
		"max":[1.0,
		1.0]
	}],
	"asset":{
		"version":"2.0",
		"generator":"Created using the official Cinema 4D glTF Exporter 1.000x284978"
	},
	"scenes":[{
		"nodes":[0,
		1,
		2,
		3]
	}],
	"nodes":[{
		"name":"Wall_1",
		"mesh":0
	},
	{
		"name":"Wall_2",
		"mesh":1
	},
	{
		"name":"Wall_3",
		"mesh":2
	},
	{
		"name":"Wall_4",
		"mesh":3
	}],
	"meshes":[{
		"name":"Wall_1",
		"primitives":[{
			"attributes":{
				"POSITION":1,
				"NORMAL":2,
				"TEXCOORD_0":3
			},
			"indices":0,
			"material":0
		}]
	},
	{
		"name":"Wall_2",
		"primitives":[{
			"attributes":{
				"POSITION":5,
				"NORMAL":6,
				"TEXCOORD_0":7
			},
			"indices":4,
			"material":0
		}]
	},
	{
		"name":"Wall_3",
		"primitives":[{
			"attributes":{
				"POSITION":9,
				"NORMAL":10,
				"TEXCOORD_0":11
			},
			"indices":8,
			"material":0
		}]
	},
	{
		"name":"Wall_4",
		"primitives":[{
			"attributes":{
				"POSITION":13,
				"NORMAL":14,
				"TEXCOORD_0":15
			},
			"indices":12,
			"material":0
		}]
	}],
	"bufferViews":[{
		"buffer":0,
		"byteOffset":0,
		"byteLength":3564,
		"target":34963
	},
	{
		"buffer":0,
		"byteOffset":3564,
		"byteLength":12896,
		"target":34962,
		"byteStride":32
	},
	{
		"buffer":1,
		"byteOffset":0,
		"byteLength":3648,
		"target":34963
	},
	{
		"buffer":1,
		"byteOffset":3648,
		"byteLength":12928,
		"target":34962,
		"byteStride":32
	},
	{
		"buffer":2,
		"byteOffset":0,
		"byteLength":3276,
		"target":34963
	},
	{
		"buffer":2,
		"byteOffset":3276,
		"byteLength":11584,
		"target":34962,
		"byteStride":32
	},
	{
		"buffer":3,
		"byteOffset":0,
		"byteLength":3180,
		"target":34963
	},
	{
		"buffer":3,
		"byteOffset":3180,
		"byteLength":11488,
		"target":34962,
		"byteStride":32
	}],
	"buffers":[{
		"uri":"data:application/octet-stream;base64,",
		"byteLength":16460
	},
	{
		"uri":"data:application/octet-stream;base64,",
		"byteLength":16576
	},
	{
		"uri":"data:application/octet-stream;base64,",
		"byteLength":14860
	},
	{
		"uri":"data:application/octet-stream;base64,",
		"byteLength":14668
	}],
	"materials":[{
		"pbrMetallicRoughness":{
			"baseColorFactor":[0.64,
			0.5922133333333334,
			0.5504,
			1.0],
			"metallicFactor":1.0,
			"roughnessFactor":1.0
		},
		"emissiveFactor":[0.0,
		0.0,
		0.0],
		"alphaMode":"OPAQUE",
		"doubleSided":false,
		"name":"CaveWall_01"
	}]
}