{
	"bufferViews":[{
		"buffer":0,
		"target":34963,
		"byteOffset":0,
		"byteLength":3564
	},
	{
		"buffer":0,
		"target":34962,
		"byteOffset":3564,
		"byteLength":13248,
		"byteStride":32
	},
	{
		"buffer":1,
		"target":34963,
		"byteOffset":0,
		"byteLength":3648
	},
	{
		"buffer":1,
		"target":34962,
		"byteOffset":3648,
		"byteLength":12992,
		"byteStride":32
	},
	{
		"buffer":2,
		"target":34963,
		"byteOffset":0,
		"byteLength":3276
	},
	{
		"buffer":2,
		"target":34962,
		"byteOffset":3276,
		"byteLength":11808,
		"byteStride":32
	},
	{
		"buffer":3,
		"target":34963,
		"byteOffset":0,
		"byteLength":3180
	},
	{
		"buffer":3,
		"target":34962,
		"byteOffset":3180,
		"byteLength":11552,
		"byteStride":32
	}],
	"asset":{
		"version":"2.0",
		"generator":"Created using the official Cinema 4D glTF Exporter 1.000x284978"
	},
	"scenes":[{
		"nodes":[0,
		1,
		2,
		3]
	}],
	"nodes":[{
		"name":"Wall_1",
		"mesh":0
	},
	{
		"name":"Wall_2",
		"mesh":1
	},
	{
		"name":"Wall_3",
		"mesh":2
	},
	{
		"name":"Wall_4",
		"mesh":3
	}],
	"meshes":[{
		"name":"Wall_1",
		"primitives":[{
			"attributes":{
				"POSITION":1,
				"NORMAL":2,
				"TEXCOORD_0":3
			},
			"indices":0,
			"material":0
		}]
	},
	{
		"name":"Wall_2",
		"primitives":[{
			"attributes":{
				"POSITION":5,
				"NORMAL":6,
				"TEXCOORD_0":7
			},
			"indices":4,
			"material":0
		}]
	},
	{
		"name":"Wall_3",
		"primitives":[{
			"attributes":{
				"POSITION":9,
				"NORMAL":10,
				"TEXCOORD_0":11
			},
			"indices":8,
			"material":0
		}]
	},
	{
		"name":"Wall_4",
		"primitives":[{
			"attributes":{
				"POSITION":13,
				"NORMAL":14,
				"TEXCOORD_0":15
			},
			"indices":12,
			"material":0
		}]
	}],
	"accessors":[{
		"max":[413],
		"bufferView":0,
		"type":"SCALAR",
		"componentType":5123,
		"count":1782,
		"byteOffset":0,
		"min":[0]
	},
	{
		"max":[2.2111728191375734,
		-0.15000000596046449,
		2.7172253131866457],
		"bufferView":1,
		"type":"VEC3",
		"componentType":5126,
		"count":414,
		"byteOffset":0,
		"min":[-1.632531762123108,
		-20.0,
		-2.729726791381836]
	},
	{
		"max":[0.9962136149406433,
		1.0,
		0.9941030740737915],
		"bufferView":1,
		"type":"VEC3",
		"componentType":5126,
		"count":414,
		"byteOffset":12,
		"min":[-0.9852313995361328,
		-0.9962003231048584,
		-0.999995768070221]
	},
	{
		"max":[1.0,
		1.0],
		"bufferView":1,
		"type":"VEC2",
		"componentType":5126,
		"count":414,
		"byteOffset":24,
		"min":[0.0,
		0.0]
	},
	{
		"max":[405],
		"bufferView":2,
		"type":"SCALAR",
		"componentType":5123,
		"count":1824,
		"byteOffset":0,
		"min":[0]
	},
	{
		"max":[2.5308761596679689,
		-0.15000000596046449,
		2.71008038520813],
		"bufferView":3,
		"type":"VEC3",
		"componentType":5126,
		"count":406,
		"byteOffset":0,
		"min":[-1.632531762123108,
		-20.0,
		-2.952279806137085]
	},
	{
		"max":[0.997288703918457,
		1.0,
		0.9993776679039002],
		"bufferView":3,
		"type":"VEC3",
		"componentType":5126,
		"count":406,
		"byteOffset":12,
		"min":[-0.9793125987052918,
		-0.9941695332527161,
		-0.9993881583213806]
	},
	{
		"max":[1.0,
		1.0],
		"bufferView":3,
		"type":"VEC2",
		"componentType":5126,
		"count":406,
		"byteOffset":24,
		"min":[0.0,
		0.0]
	},
	{
		"max":[368],
		"bufferView":4,
		"type":"SCALAR",
		"componentType":5123,
		"count":1638,
		"byteOffset":0,
		"min":[0]
	},
	{
		"max":[2.043985605239868,
		-0.15000000596046449,
		2.71008038520813],
		"bufferView":5,
		"type":"VEC3",
		"componentType":5126,
		"count":369,
		"byteOffset":0,
		"min":[-1.632531762123108,
		-20.0,
		-2.5723607540130617]
	},
	{
		"max":[0.9997456073760986,
		1.0,
		0.99916011095047],
		"bufferView":5,
		"type":"VEC3",
		"componentType":5126,
		"count":369,
		"byteOffset":12,
		"min":[-0.9680013060569763,
		-0.9939175844192505,
		-0.9998979568481445]
	},
	{
		"max":[1.0,
		1.0],
		"bufferView":5,
		"type":"VEC2",
		"componentType":5126,
		"count":369,
		"byteOffset":24,
		"min":[0.0,
		0.0]
	},
	{
		"max":[360],
		"bufferView":6,
		"type":"SCALAR",
		"componentType":5123,
		"count":1590,
		"byteOffset":0,
		"min":[0]
	},
	{
		"max":[2.0736868381500246,
		-0.15000000596046449,
		2.71008038520813],
		"bufferView":7,
		"type":"VEC3",
		"componentType":5126,
		"count":361,
		"byteOffset":0,
		"min":[-1.632531762123108,
		-20.0,
		-2.952279806137085]
	},
	{
		"max":[0.9962136149406433,
		1.0,
		0.9941030740737915],
		"bufferView":7,
		"type":"VEC3",
		"componentType":5126,
		"count":361,
		"byteOffset":12,
		"min":[-0.9738191366195679,
		-0.5424521565437317,
		-0.9992978572845459]
	},
	{
		"max":[1.0,
		1.0],
		"bufferView":7,
		"type":"VEC2",
		"componentType":5126,
		"count":361,
		"byteOffset":24,
		"min":[0.0,
		0.0]
	}],
	"buffers":[{
		"uri":"data:application/octet-stream;base64,",
		"byteLength":16812
	},
	{
		"uri":"data:application/octet-stream;base64,",
		"byteLength":16640
	},
	{
		"uri":"data:application/octet-stream;base64,",
		"byteLength":15084
	},
	{
		"uri":"data:application/octet-stream;base64,",
		"byteLength":14732
	}],
	"materials":[{
		"pbrMetallicRoughness":{
			"baseColorFactor":[0.64,
			0.5922133333333334,
			0.5504,
			1.0],
			"metallicFactor":1.0,
			"roughnessFactor":1.0
		},
		"emissiveFactor":[0.0,
		0.0,
		0.0],
		"alphaMode":"OPAQUE",
		"doubleSided":false,
		"name":"CaveWall_01"
	}]
}