{
	"asset":{
		"version":"2.0",
		"generator":"Created using the official Cinema 4D glTF Exporter 1.000x284978"
	},
	"scenes":[{
		"nodes":[0]
	}],
	"nodes":[{
		"name":"placeholder_01",
		"mesh":0
	}],
	"meshes":[{
		"name":"placeholder_01",
		"primitives":[{
			"attributes":{
				"POSITION":1,
				"NORMAL":2,
				"TEXCOORD_0":3
			},
			"indices":0,
			"material":0
		}]
	}],
	"accessors":[{
		"bufferView":0,
		"componentType":5123,
		"type":"SCALAR",
		"count":102,
		"byteOffset":0,
		"min":[0],
		"max":[45]
	},
	{
		"bufferView":1,
		"componentType":5126,
		"type":"VEC3",
		"count":46,
		"byteOffset":0,
		"min":[-1.0825318098068238,
		-10.0,
		-3.355940103530884],
		"max":[1.4825317859649659,
		0.20000000298023225,
		3.355940103530884]
	},
	{
		"bufferView":1,
		"componentType":5126,
		"type":"VEC3",
		"count":46,
		"byteOffset":12,
		"min":[-1.0,
		-1.0,
		-0.8660253882408142],
		"max":[1.0,
		1.0,
		0.866025447845459]
	},
	{
		"bufferView":1,
		"componentType":5126,
		"type":"VEC2",
		"count":46,
		"byteOffset":24,
		"min":[0.625,
		0.5],
		"max":[1.0,
		0.9330127239227295]
	}],
	"bufferViews":[{
		"buffer":0,
		"byteOffset":0,
		"byteLength":204,
		"target":34963
	},
	{
		"buffer":0,
		"byteOffset":204,
		"byteLength":1472,
		"target":34962,
		"byteStride":32
	}],
	"buffers":[{
		"uri":"data:application/octet-stream;base64,",
		"byteLength":1676
	}],
	"materials":[{
		"pbrMetallicRoughness":{
			"baseColorFactor":[0.5700000000000001,
			0.5700000000000001,
			0.5700000000000001,
			1.0],
			"metallicFactor":1.0,
			"roughnessFactor":1.0
		},
		"emissiveFactor":[0.0,
		0.0,
		0.0],
		"alphaMode":"OPAQUE",
		"doubleSided":true,
		"name":"cliff_01"
	}]
}