{
	"asset":{
		"version":"2.0",
		"generator":"Created using the official Cinema 4D glTF Exporter 1.000x284978"
	},
	"scenes":[{
		"nodes":[0]
	}],
	"nodes":[{
		"name":"placeholder_01",
		"mesh":0
	}],
	"meshes":[{
		"name":"placeholder_01",
		"primitives":[{
			"attributes":{
				"POSITION":1,
				"NORMAL":2,
				"TEXCOORD_0":3
			},
			"indices":0,
			"material":0
		}]
	}],
	"accessors":[{
		"bufferView":0,
		"componentType":5123,
		"type":"SCALAR",
		"count":1248,
		"byteOffset":0,
		"min":[0],
		"max":[545]
	},
	{
		"bufferView":1,
		"componentType":5126,
		"type":"VEC3",
		"count":546,
		"byteOffset":0,
		"min":[-1.3466836214065552,
		-11.425376892089844,
		-3.743878126144409],
		"max":[1.7686411142349244,
		-0.04703811928629875,
		3.657435655593872]
	},
	{
		"bufferView":1,
		"componentType":5126,
		"type":"VEC3",
		"count":546,
		"byteOffset":12,
		"min":[-1.0,
		-1.0,
		-0.9999836683273315],
		"max":[1.0,
		1.0,
		0.9995194673538208]
	},
	{
		"bufferView":1,
		"componentType":5126,
		"type":"VEC2",
		"count":546,
		"byteOffset":24,
		"min":[0.0,
		0.0],
		"max":[1.0,
		1.0]
	}],
	"bufferViews":[{
		"buffer":0,
		"byteOffset":0,
		"byteLength":2496,
		"target":34963
	},
	{
		"buffer":0,
		"byteOffset":2496,
		"byteLength":17472,
		"target":34962,
		"byteStride":32
	}],
	"buffers":[{
		"uri":"data:application/octet-stream;base64,",
		"byteLength":19968
	}],
	"materials":[{
		"pbrMetallicRoughness":{
			"baseColorFactor":[0.45,
			0.485,
			0.5,
			1.0],
			"metallicFactor":1.0,
			"roughnessFactor":1.0
		},
		"emissiveFactor":[0.0,
		0.0,
		0.0],
		"alphaMode":"OPAQUE",
		"doubleSided":true,
		"name":"cliff_01"
	}]
}