{
    "asset" : {
        "generator" : "Khronos glTF Blender I/O v1.7.33",
        "version" : "2.0"
    },
    "scene" : 0,
    "scenes" : [
        {
            "name" : "Scene",
            "nodes" : [
                0,
                1,
                2,
                3
            ]
        }
    ],
    "nodes" : [
        {
            "mesh" : 0,
            "name" : "cliff_granit_01"
        },
        {
            "mesh" : 1,
            "name" : "cliff_granit_01_grass"
        },
        {
            "mesh" : 2,
            "name" : "cliff_granit_01_dirt"
        },
        {
            "mesh" : 3,
            "name" : "cliff_granit_01_sand"
        }
    ],
    "materials" : [
        {
            "name" : "cliff_granit_01",
            "pbrMetallicRoughness" : {
                "baseColorFactor" : [
                    0.44999998807907104,
                    0.48500001430511475,
                    0.5,
                    1
                ]
            }
        },
        {
            "name" : "cliff_granit_01_grass",
            "pbrMetallicRoughness" : {
                "baseColorFactor" : [
                    0.44999998807907104,
                    0.48500001430511475,
                    0.5,
                    1
                ]
            }
        },
        {
            "name" : "cliff_granit_01_dirt",
            "pbrMetallicRoughness" : {
                "baseColorFactor" : [
                    0.44999998807907104,
                    0.48500001430511475,
                    0.5,
                    1
                ]
            }
        },
        {
            "name" : "cliff_granit_01_sand",
            "pbrMetallicRoughness" : {
                "baseColorFactor" : [
                    0.44999998807907104,
                    0.48500001430511475,
                    0.5,
                    1
                ]
            }
        }
    ],
    "meshes" : [
        {
            "name" : "01",
            "primitives" : [
                {
                    "attributes" : {
                        "POSITION" : 0,
                        "NORMAL" : 1,
                        "TEXCOORD_0" : 2
                    },
                    "indices" : 3,
                    "material" : 0
                }
            ]
        },
        {
            "name" : "01_grass",
            "primitives" : [
                {
                    "attributes" : {
                        "POSITION" : 4,
                        "NORMAL" : 5,
                        "TEXCOORD_0" : 6
                    },
                    "indices" : 3,
                    "material" : 1
                }
            ]
        },
        {
            "name" : "01_dirt",
            "primitives" : [
                {
                    "attributes" : {
                        "POSITION" : 7,
                        "NORMAL" : 8,
                        "TEXCOORD_0" : 9
                    },
                    "indices" : 3,
                    "material" : 2
                }
            ]
        },
        {
            "name" : "01_sand",
            "primitives" : [
                {
                    "attributes" : {
                        "POSITION" : 10,
                        "NORMAL" : 11,
                        "TEXCOORD_0" : 12
                    },
                    "indices" : 3,
                    "material" : 3
                }
            ]
        }
    ],
    "accessors" : [
        {
            "bufferView" : 0,
            "componentType" : 5126,
            "count" : 757,
            "max" : [
                2.0582988262176514,
                -0.04703521728515625,
                3.488243579864502
            ],
            "min" : [
                -2.687197208404541,
                -20.001182556152344,
                -3.50692081451416
            ],
            "type" : "VEC3"
        },
        {
            "bufferView" : 1,
            "componentType" : 5126,
            "count" : 757,
            "type" : "VEC3"
        },
        {
            "bufferView" : 2,
            "componentType" : 5126,
            "count" : 757,
            "type" : "VEC2"
        },
        {
            "bufferView" : 3,
            "componentType" : 5123,
            "count" : 1395,
            "type" : "SCALAR"
        },
        {
            "bufferView" : 4,
            "componentType" : 5126,
            "count" : 757,
            "max" : [
                2.0582988262176514,
                -0.04703521728515625,
                3.488243579864502
            ],
            "min" : [
                -2.687197208404541,
                -20.001182556152344,
                -3.50692081451416
            ],
            "type" : "VEC3"
        },
        {
            "bufferView" : 5,
            "componentType" : 5126,
            "count" : 757,
            "type" : "VEC3"
        },
        {
            "bufferView" : 6,
            "componentType" : 5126,
            "count" : 757,
            "type" : "VEC2"
        },
        {
            "bufferView" : 7,
            "componentType" : 5126,
            "count" : 757,
            "max" : [
                2.0582988262176514,
                -0.04703521728515625,
                3.488243579864502
            ],
            "min" : [
                -2.687197208404541,
                -20.001182556152344,
                -3.50692081451416
            ],
            "type" : "VEC3"
        },
        {
            "bufferView" : 8,
            "componentType" : 5126,
            "count" : 757,
            "type" : "VEC3"
        },
        {
            "bufferView" : 9,
            "componentType" : 5126,
            "count" : 757,
            "type" : "VEC2"
        },
        {
            "bufferView" : 10,
            "componentType" : 5126,
            "count" : 757,
            "max" : [
                2.0582988262176514,
                -0.04703521728515625,
                3.488243579864502
            ],
            "min" : [
                -2.687197208404541,
                -20.001182556152344,
                -3.50692081451416
            ],
            "type" : "VEC3"
        },
        {
            "bufferView" : 11,
            "componentType" : 5126,
            "count" : 757,
            "type" : "VEC3"
        },
        {
            "bufferView" : 12,
            "componentType" : 5126,
            "count" : 757,
            "type" : "VEC2"
        }
    ],
    "bufferViews" : [
        {
            "buffer" : 0,
            "byteLength" : 9084,
            "byteOffset" : 0
        },
        {
            "buffer" : 0,
            "byteLength" : 9084,
            "byteOffset" : 9084
        },
        {
            "buffer" : 0,
            "byteLength" : 6056,
            "byteOffset" : 18168
        },
        {
            "buffer" : 0,
            "byteLength" : 2790,
            "byteOffset" : 24224
        },
        {
            "buffer" : 0,
            "byteLength" : 9084,
            "byteOffset" : 27016
        },
        {
            "buffer" : 0,
            "byteLength" : 9084,
            "byteOffset" : 36100
        },
        {
            "buffer" : 0,
            "byteLength" : 6056,
            "byteOffset" : 45184
        },
        {
            "buffer" : 0,
            "byteLength" : 9084,
            "byteOffset" : 51240
        },
        {
            "buffer" : 0,
            "byteLength" : 9084,
            "byteOffset" : 60324
        },
        {
            "buffer" : 0,
            "byteLength" : 6056,
            "byteOffset" : 69408
        },
        {
            "buffer" : 0,
            "byteLength" : 9084,
            "byteOffset" : 75464
        },
        {
            "buffer" : 0,
            "byteLength" : 9084,
            "byteOffset" : 84548
        },
        {
            "buffer" : 0,
            "byteLength" : 6056,
            "byteOffset" : 93632
        }
    ],
    "buffers" : [
        {
            "byteLength" : 99688,
            "uri" : "data:application/octet-stream;base64,"
        }
    ]
}
