{
	"accessors":[{
		"bufferView":0,
		"type":"SCALAR",
		"componentType":5123,
		"count":1680,
		"byteOffset":0,
		"min":[0],
		"max":[397]
	},
	{
		"bufferView":1,
		"type":"VEC3",
		"componentType":5126,
		"count":398,
		"byteOffset":0,
		"min":[-1.0825318098068238,
		-10.0,
		-3.355940103530884],
		"max":[1.523797631263733,
		0.009999999776482582,
		3.355940103530884]
	},
	{
		"bufferView":1,
		"type":"VEC3",
		"componentType":5126,
		"count":398,
		"byteOffset":12,
		"min":[-1.0,
		-1.0,
		-0.8786683678627014],
		"max":[1.0,
		1.0,
		0.8798272013664246]
	},
	{
		"bufferView":1,
		"type":"VEC2",
		"componentType":5126,
		"count":398,
		"byteOffset":24,
		"min":[0.625,
		0.5],
		"max":[1.0,
		0.9330127239227295]
	}],
	"asset":{
		"version":"2.0",
		"generator":"Created using the official Cinema 4D glTF Exporter 1.000x284978"
	},
	"scenes":[{
		"nodes":[0]
	}],
	"nodes":[{
		"name":"cliff template",
		"translation":[0.0,
		-0.5,
		0.0],
		"rotation":[-4.440892098500626e-16,
		0.0,
		0.0,
		-1.0],
		"scale":[1.0,
		1.0,
		1.0],
		"mesh":0
	}],
	"meshes":[{
		"name":"cliff template",
		"primitives":[{
			"attributes":{
				"POSITION":1,
				"NORMAL":2,
				"TEXCOORD_0":3
			},
			"indices":0
		}]
	}],
	"bufferViews":[{
		"buffer":0,
		"byteOffset":0,
		"byteLength":3360,
		"target":34963
	},
	{
		"buffer":0,
		"byteOffset":3360,
		"byteLength":12736,
		"target":34962,
		"byteStride":32
	}],
	"buffers":[{
		"uri":"data:application/octet-stream;base64,",
		"byteLength":16096
	}]
}