{
	"asset":{
		"version":"2.0",
		"generator":"Created using the official Cinema 4D glTF Exporter 1.000x284978"
	},
	"scenes":[{
		"nodes":[0]
	}],
	"nodes":[{
		"name":"granit_01",
		"mesh":0
	}],
	"meshes":[{
		"name":"granit_01",
		"primitives":[{
			"attributes":{
				"POSITION":1,
				"NORMAL":2,
				"TEXCOORD_0":3
			},
			"indices":0,
			"material":0
		}]
	}],
	"accessors":[{
		"bufferView":0,
		"type":"SCALAR",
		"componentType":5123,
		"count":1395,
		"byteOffset":0,
		"min":[0],
		"max":[686]
	},
	{
		"bufferView":1,
		"type":"VEC3",
		"componentType":5126,
		"count":687,
		"byteOffset":0,
		"min":[-2.687197208404541,
		-20.001182556152345,
		-3.50692081451416],
		"max":[2.0582988262176515,
		-0.04703521728515625,
		3.488243579864502]
	},
	{
		"bufferView":1,
		"type":"VEC3",
		"componentType":5126,
		"count":687,
		"byteOffset":12,
		"min":[-1.0,
		-1.0,
		-1.0],
		"max":[1.0,
		1.0,
		1.0]
	},
	{
		"bufferView":1,
		"type":"VEC2",
		"componentType":5126,
		"count":687,
		"byteOffset":24,
		"min":[0.008026579394936562,
		0.008026579394936562],
		"max":[0.9919734001159668,
		0.9919548034667969]
	}],
	"bufferViews":[{
		"buffer":0,
		"byteOffset":0,
		"byteLength":2790,
		"target":34963
	},
	{
		"buffer":0,
		"byteOffset":2792,
		"byteLength":21984,
		"target":34962,
		"byteStride":32
	}],
	"buffers":[{
		"uri":"data:application/octet-stream;base64,",
		"byteLength":24776
	}],
	"materials":[{
		"doubleSided":false,
		"pbrMetallicRoughness":{
			"baseColorFactor":[0.45,
			0.485,
			0.5,
			1.0],
			"metallicFactor":1.0,
			"roughnessFactor":1.0
		},
		"emissiveFactor":[0.0,
		0.0,
		0.0],
		"alphaMode":"OPAQUE",
		"name":"cliff_01"
	}]
}