{
	"images":[{
		"uri":"data:image/jpeg;base64,"
	}],
	"bufferViews":[{
		"buffer":0,
		"byteOffset":0,
		"byteLength":816,
		"target":34963
	},
	{
		"buffer":0,
		"byteOffset":816,
		"byteLength":7744,
		"target":34962,
		"byteStride":32
	}],
	"nodes":[{
		"name":"flag_human_01",
		"mesh":0
	}],
	"asset":{
		"generator":"Created using the official Cinema 4D glTF Exporter 1.000x284978",
		"version":"2.0"
	},
	"scenes":[{
		"nodes":[0]
	}],
	"meshes":[{
		"name":"flag_human_01",
		"primitives":[{
			"attributes":{
				"POSITION":1,
				"NORMAL":2,
				"TEXCOORD_0":3
			},
			"indices":0,
			"material":0
		}]
	}],
	"samplers":[{
		"magFilter":9729,
		"minFilter":9729,
		"wrapS":10497,
		"wrapT":10497
	}],
	"accessors":[{
		"bufferView":0,
		"type":"SCALAR",
		"byteOffset":0,
		"componentType":5123,
		"count":408,
		"min":[0],
		"max":[241]
	},
	{
		"bufferView":1,
		"type":"VEC3",
		"byteOffset":0,
		"componentType":5126,
		"count":242,
		"min":[-1.600000023841858,
		-0.00402130838483572,
		-0.4296676516532898],
		"max":[0.37500470876693728,
		4.058906078338623,
		0.4296676516532898]
	},
	{
		"bufferView":1,
		"type":"VEC3",
		"byteOffset":12,
		"componentType":5126,
		"count":242,
		"min":[-0.9848078489303589,
		-1.0,
		-1.0],
		"max":[0.9848078489303589,
		1.0,
		1.0]
	},
	{
		"bufferView":1,
		"type":"VEC2",
		"byteOffset":24,
		"componentType":5126,
		"count":242,
		"min":[0.01596173644065857,
		0.005423457361757755],
		"max":[0.9516074657440186,
		0.9945764541625977]
	}],
	"materials":[{
		"pbrMetallicRoughness":{
			"baseColorTexture":{
				"index":0
			},
			"baseColorFactor":[1.0,
			1.0,
			1.0,
			1.0],
			"metallicFactor":1.0,
			"roughnessFactor":1.0
		},
		"emissiveFactor":[0.0,
		0.0,
		0.0],
		"alphaMode":"OPAQUE",
		"doubleSided":true,
		"name":"Flag_human_01"
	}],
	"buffers":[{
		"uri":"data:application/octet-stream;base64,",
		"byteLength":8560
	}],
	"textures":[{
		"sampler":0,
		"source":0
	}]
}