{
	"asset":{
		"version":"2.0",
		"generator":"Created using the official Cinema 4D glTF Exporter 1.000x284978"
	},
	"images":[{
		"uri":"data:image/png;base64,"
	},
	{
		"uri":"data:image/jpeg;base64,"
	}],
	"scenes":[{
		"nodes":[0,
		1,
		2,
		3,
		4]
	}],
	"accessors":[{
		"bufferView":0,
		"type":"SCALAR",
		"componentType":5123,
		"count":702,
		"max":[257],
		"byteOffset":0,
		"min":[0]
	},
	{
		"bufferView":1,
		"type":"VEC3",
		"componentType":5126,
		"count":258,
		"max":[2.057499885559082,
		5.179999828338623,
		2.039767265319824],
		"byteOffset":0,
		"min":[-2.0925800800323488,
		0.0,
		-1.970080018043518]
	},
	{
		"bufferView":1,
		"type":"VEC3",
		"componentType":5126,
		"count":258,
		"max":[0.9668974280357361,
		1.0,
		0.9999865293502808],
		"byteOffset":12,
		"min":[-0.9668974280357361,
		0.0051960451528429989,
		-0.9668973088264465]
	},
	{
		"bufferView":1,
		"type":"VEC2",
		"componentType":5126,
		"count":258,
		"max":[0.9950752258300781,
		0.9785164594650269],
		"byteOffset":24,
		"min":[0.06155649572610855,
		0.004924810491502285]
	},
	{
		"bufferView":2,
		"type":"SCALAR",
		"componentType":5123,
		"count":936,
		"max":[313],
		"byteOffset":0,
		"min":[0]
	},
	{
		"bufferView":3,
		"type":"VEC3",
		"componentType":5126,
		"count":314,
		"max":[1.7899999618530274,
		3.203200101852417,
		2.7740960121154787],
		"byteOffset":0,
		"min":[-2.3299999237060549,
		-1.164153192248496e-12,
		-2.491407871246338]
	},
	{
		"bufferView":3,
		"type":"VEC3",
		"componentType":5126,
		"count":314,
		"max":[0.9837319254875183,
		1.0,
		0.9999940991401672],
		"byteOffset":12,
		"min":[-0.9837319254875183,
		0.003464070148766041,
		-0.9999741315841675]
	},
	{
		"bufferView":3,
		"type":"VEC2",
		"componentType":5126,
		"count":314,
		"max":[0.9918638467788696,
		0.9660139083862305],
		"byteOffset":24,
		"min":[0.06155649572610855,
		0.004924810491502285]
	},
	{
		"bufferView":4,
		"type":"SCALAR",
		"componentType":5123,
		"count":990,
		"max":[357],
		"byteOffset":0,
		"min":[0]
	},
	{
		"bufferView":5,
		"type":"VEC3",
		"componentType":5126,
		"count":358,
		"max":[1.9086400270462037,
		2.799999952316284,
		2.4607999324798586],
		"byteOffset":0,
		"min":[-1.543199896812439,
		0.0,
		-1.9029736518859864]
	},
	{
		"bufferView":5,
		"type":"VEC3",
		"componentType":5126,
		"count":358,
		"max":[0.9999760389328003,
		1.0,
		0.9396872520446777],
		"byteOffset":12,
		"min":[-0.9280397295951843,
		0.0,
		-0.9280397295951843]
	},
	{
		"bufferView":5,
		"type":"VEC2",
		"componentType":5126,
		"count":358,
		"max":[0.9918638467788696,
		0.9660139083862305],
		"byteOffset":24,
		"min":[0.05281171202659607,
		0.004924810491502285]
	},
	{
		"bufferView":6,
		"type":"SCALAR",
		"componentType":5123,
		"count":996,
		"max":[350],
		"byteOffset":0,
		"min":[0]
	},
	{
		"bufferView":7,
		"type":"VEC3",
		"componentType":5126,
		"count":351,
		"max":[2.2173333168029787,
		4.857925891876221,
		1.9477332830429078],
		"byteOffset":0,
		"min":[-1.367720603942871,
		0.0,
		-2.177999973297119]
	},
	{
		"bufferView":7,
		"type":"VEC3",
		"componentType":5126,
		"count":351,
		"max":[0.9847944974899292,
		1.0,
		0.9999865293502808],
		"byteOffset":12,
		"min":[-0.9668973088264465,
		0.0,
		-0.9668973088264465]
	},
	{
		"bufferView":7,
		"type":"VEC2",
		"componentType":5126,
		"count":351,
		"max":[0.9505504369735718,
		0.9785164594650269],
		"byteOffset":24,
		"min":[0.004924810491502285,
		0.007221171632409096]
	},
	{
		"bufferView":8,
		"type":"SCALAR",
		"componentType":5123,
		"count":1230,
		"max":[428],
		"byteOffset":0,
		"min":[0]
	},
	{
		"bufferView":9,
		"type":"VEC3",
		"componentType":5126,
		"count":429,
		"max":[2.3071110248565676,
		4.809999942779541,
		2.378000020980835],
		"byteOffset":0,
		"min":[-1.5190000534057618,
		0.0,
		-1.9868266582489014]
	},
	{
		"bufferView":9,
		"type":"VEC3",
		"componentType":5126,
		"count":429,
		"max":[0.999962568283081,
		1.0,
		0.9999834299087524],
		"byteOffset":12,
		"min":[-0.9827938079833984,
		0.0,
		-0.9827938675880432]
	},
	{
		"bufferView":9,
		"type":"VEC2",
		"componentType":5126,
		"count":429,
		"max":[0.9950752258300781,
		0.9290997982025147],
		"byteOffset":24,
		"min":[0.004924810491502285,
		0.007221171632409096]
	}],
	"nodes":[{
		"name":"center_01",
		"mesh":0
	},
	{
		"name":"center_02",
		"mesh":1
	},
	{
		"name":"outer_01",
		"mesh":2
	},
	{
		"name":"outer_02",
		"mesh":3
	},
	{
		"name":"outer_03",
		"mesh":4
	}],
	"materials":[{
		"pbrMetallicRoughness":{
			"baseColorTexture":{
				"index":0
			},
			"baseColorFactor":[0.8,
			0.8,
			0.8,
			1.0],
			"metallicRoughnessTexture":{
				"index":1
			},
			"metallicFactor":0.0,
			"roughnessFactor":1.0
		},
		"emissiveFactor":[0.0,
		0.0,
		0.0],
		"alphaMode":"BLEND",
		"doubleSided":true,
		"name":"forest_pinetrees"
	}],
	"meshes":[{
		"primitives":[{
			"indices":0,
			"attributes":{
				"POSITION":1,
				"NORMAL":2,
				"TEXCOORD_0":3
			},
			"material":0
		}],
		"name":"center_01"
	},
	{
		"primitives":[{
			"indices":4,
			"attributes":{
				"POSITION":5,
				"NORMAL":6,
				"TEXCOORD_0":7
			},
			"material":0
		}],
		"name":"center_02"
	},
	{
		"primitives":[{
			"indices":8,
			"attributes":{
				"POSITION":9,
				"NORMAL":10,
				"TEXCOORD_0":11
			},
			"material":0
		}],
		"name":"outer_01"
	},
	{
		"primitives":[{
			"indices":12,
			"attributes":{
				"POSITION":13,
				"NORMAL":14,
				"TEXCOORD_0":15
			},
			"material":0
		}],
		"name":"outer_02"
	},
	{
		"primitives":[{
			"indices":16,
			"attributes":{
				"POSITION":17,
				"NORMAL":18,
				"TEXCOORD_0":19
			},
			"material":0
		}],
		"name":"outer_03"
	}],
	"bufferViews":[{
		"buffer":0,
		"byteOffset":0,
		"byteLength":1404,
		"target":34963
	},
	{
		"buffer":0,
		"byteOffset":1404,
		"byteLength":8256,
		"target":34962,
		"byteStride":32
	},
	{
		"buffer":1,
		"byteOffset":0,
		"byteLength":1872,
		"target":34963
	},
	{
		"buffer":1,
		"byteOffset":1872,
		"byteLength":10048,
		"target":34962,
		"byteStride":32
	},
	{
		"buffer":2,
		"byteOffset":0,
		"byteLength":1980,
		"target":34963
	},
	{
		"buffer":2,
		"byteOffset":1980,
		"byteLength":11456,
		"target":34962,
		"byteStride":32
	},
	{
		"buffer":3,
		"byteOffset":0,
		"byteLength":1992,
		"target":34963
	},
	{
		"buffer":3,
		"byteOffset":1992,
		"byteLength":11232,
		"target":34962,
		"byteStride":32
	},
	{
		"buffer":4,
		"byteOffset":0,
		"byteLength":2460,
		"target":34963
	},
	{
		"buffer":4,
		"byteOffset":2460,
		"byteLength":13728,
		"target":34962,
		"byteStride":32
	}],
	"buffers":[{
		"uri":"data:application/octet-stream;base64,",
		"byteLength":9660
	},
	{
		"uri":"data:application/octet-stream;base64,",
		"byteLength":11920
	},
	{
		"uri":"data:application/octet-stream;base64,",
		"byteLength":13436
	},
	{
		"uri":"data:application/octet-stream;base64,",
		"byteLength":13224
	},
	{
		"uri":"data:application/octet-stream;base64,",
		"byteLength":16188
	}],
	"samplers":[{
		"magFilter":9729,
		"minFilter":9729,
		"wrapS":10497,
		"wrapT":10497
	},
	{
		"magFilter":9729,
		"minFilter":9729,
		"wrapS":10497,
		"wrapT":10497
	}],
	"textures":[{
		"sampler":0,
		"source":0
	},
	{
		"sampler":1,
		"source":1
	}]
}