{
	"buffers":[{
		"uri":"data:application/octet-stream;base64,",
		"byteLength":9652
	},
	{
		"uri":"data:application/octet-stream;base64,",
		"byteLength":11708
	},
	{
		"uri":"data:application/octet-stream;base64,",
		"byteLength":13440
	},
	{
		"uri":"data:application/octet-stream;base64,",
		"byteLength":11492
	},
	{
		"uri":"data:application/octet-stream;base64,",
		"byteLength":14048
	}],
	"asset":{
		"version":"2.0",
		"generator":"Created using the official Cinema 4D glTF Exporter 1.000x284978"
	},
	"scenes":[{
		"nodes":[0,
		1,
		2,
		3,
		4]
	}],
	"nodes":[{
		"name":"center_01",
		"mesh":0
	},
	{
		"name":"center_02",
		"mesh":1
	},
	{
		"name":"outer_01",
		"mesh":2
	},
	{
		"name":"outer_02",
		"mesh":3
	},
	{
		"name":"outer_03",
		"mesh":4
	}],
	"meshes":[{
		"name":"center_01",
		"primitives":[{
			"attributes":{
				"POSITION":1,
				"NORMAL":2,
				"TEXCOORD_0":3
			},
			"indices":0
		}]
	},
	{
		"name":"center_02",
		"primitives":[{
			"attributes":{
				"POSITION":5,
				"NORMAL":6,
				"TEXCOORD_0":7
			},
			"indices":4
		}]
	},
	{
		"name":"outer_01",
		"primitives":[{
			"attributes":{
				"POSITION":9,
				"NORMAL":10,
				"TEXCOORD_0":11
			},
			"indices":8
		}]
	},
	{
		"name":"outer_02",
		"primitives":[{
			"attributes":{
				"POSITION":13,
				"NORMAL":14,
				"TEXCOORD_0":15
			},
			"indices":12
		}]
	},
	{
		"name":"outer_03",
		"primitives":[{
			"attributes":{
				"POSITION":17,
				"NORMAL":18,
				"TEXCOORD_0":19
			},
			"indices":16
		}]
	}],
	"accessors":[{
		"bufferView":0,
		"type":"SCALAR",
		"componentType":5123,
		"max":[262],
		"count":618,
		"byteOffset":0,
		"min":[0]
	},
	{
		"bufferView":1,
		"type":"VEC3",
		"componentType":5126,
		"max":[2.057499885559082,
		6.065852165222168,
		1.871999979019165],
		"count":263,
		"byteOffset":0,
		"min":[-2.0925800800323488,
		0.0,
		-1.970080018043518]
	},
	{
		"bufferView":1,
		"type":"VEC3",
		"componentType":5126,
		"max":[1.0,
		1.0,
		0.9999865293502808],
		"count":263,
		"byteOffset":12,
		"min":[-0.9663686752319336,
		-0.00519608473405242,
		-0.9663686752319336]
	},
	{
		"bufferView":1,
		"type":"VEC2",
		"componentType":5126,
		"max":[1.0,
		1.0],
		"count":263,
		"byteOffset":24,
		"min":[0.0,
		0.0]
	},
	{
		"bufferView":2,
		"type":"SCALAR",
		"componentType":5123,
		"max":[315],
		"count":798,
		"byteOffset":0,
		"min":[0]
	},
	{
		"bufferView":3,
		"type":"VEC3",
		"componentType":5126,
		"max":[1.7899999618530274,
		3.927067756652832,
		2.7740960121154787],
		"count":316,
		"byteOffset":0,
		"min":[-2.3299999237060549,
		-1.164153192248496e-12,
		-2.491407871246338]
	},
	{
		"bufferView":3,
		"type":"VEC3",
		"componentType":5126,
		"max":[1.0,
		1.0,
		0.9999940991401672],
		"count":316,
		"byteOffset":12,
		"min":[-0.9733483791351318,
		-0.006928025744855404,
		-0.9999741315841675]
	},
	{
		"bufferView":3,
		"type":"VEC2",
		"componentType":5126,
		"max":[1.0,
		1.0],
		"count":316,
		"byteOffset":24,
		"min":[0.0,
		0.0]
	},
	{
		"bufferView":4,
		"type":"SCALAR",
		"componentType":5123,
		"max":[374],
		"count":720,
		"byteOffset":0,
		"min":[0]
	},
	{
		"bufferView":5,
		"type":"VEC3",
		"componentType":5126,
		"max":[1.8732050657272339,
		3.432751417160034,
		2.450000047683716],
		"count":375,
		"byteOffset":0,
		"min":[-1.543199896812439,
		0.0,
		-1.8969615697860718]
	},
	{
		"bufferView":5,
		"type":"VEC3",
		"componentType":5126,
		"max":[0.9999760389328003,
		0.8505595922470093,
		0.9755527377128601],
		"count":375,
		"byteOffset":12,
		"min":[-0.9755527377128601,
		-0.0034641032107174398,
		-0.9755527377128601]
	},
	{
		"bufferView":5,
		"type":"VEC2",
		"componentType":5126,
		"max":[1.0,
		1.0],
		"count":375,
		"byteOffset":24,
		"min":[0.0,
		0.0]
	},
	{
		"bufferView":6,
		"type":"SCALAR",
		"componentType":5123,
		"max":[315],
		"count":690,
		"byteOffset":0,
		"min":[0]
	},
	{
		"bufferView":7,
		"type":"VEC3",
		"componentType":5126,
		"max":[2.1948556900024416,
		5.489999771118164,
		1.9600000381469727],
		"count":316,
		"byteOffset":0,
		"min":[-1.1663999557495118,
		0.0,
		-2.1031088829040529]
	},
	{
		"bufferView":7,
		"type":"VEC3",
		"componentType":5126,
		"max":[1.0,
		1.0,
		0.9999865293502808],
		"count":316,
		"byteOffset":12,
		"min":[-0.9722630977630615,
		-1.0,
		-0.9722630381584168]
	},
	{
		"bufferView":7,
		"type":"VEC2",
		"componentType":5126,
		"max":[1.0,
		1.0],
		"count":316,
		"byteOffset":24,
		"min":[0.0,
		0.0]
	},
	{
		"bufferView":8,
		"type":"SCALAR",
		"componentType":5123,
		"max":[384],
		"count":864,
		"byteOffset":0,
		"min":[0]
	},
	{
		"bufferView":9,
		"type":"VEC3",
		"componentType":5126,
		"max":[2.2546632289886476,
		5.632576942443848,
		2.3031089305877687],
		"count":385,
		"byteOffset":0,
		"min":[-1.5190000534057618,
		0.0,
		-2.003999948501587]
	},
	{
		"bufferView":9,
		"type":"VEC3",
		"componentType":5126,
		"max":[0.999962568283081,
		1.0,
		0.9999834299087524],
		"count":385,
		"byteOffset":12,
		"min":[-0.986116349697113,
		-1.0,
		-0.9813625812530518]
	},
	{
		"bufferView":9,
		"type":"VEC2",
		"componentType":5126,
		"max":[1.0,
		1.0],
		"count":385,
		"byteOffset":24,
		"min":[0.0,
		0.0]
	}],
	"bufferViews":[{
		"buffer":0,
		"byteOffset":0,
		"byteLength":1236,
		"target":34963
	},
	{
		"buffer":0,
		"byteOffset":1236,
		"byteLength":8416,
		"target":34962,
		"byteStride":32
	},
	{
		"buffer":1,
		"byteOffset":0,
		"byteLength":1596,
		"target":34963
	},
	{
		"buffer":1,
		"byteOffset":1596,
		"byteLength":10112,
		"target":34962,
		"byteStride":32
	},
	{
		"buffer":2,
		"byteOffset":0,
		"byteLength":1440,
		"target":34963
	},
	{
		"buffer":2,
		"byteOffset":1440,
		"byteLength":12000,
		"target":34962,
		"byteStride":32
	},
	{
		"buffer":3,
		"byteOffset":0,
		"byteLength":1380,
		"target":34963
	},
	{
		"buffer":3,
		"byteOffset":1380,
		"byteLength":10112,
		"target":34962,
		"byteStride":32
	},
	{
		"buffer":4,
		"byteOffset":0,
		"byteLength":1728,
		"target":34963
	},
	{
		"buffer":4,
		"byteOffset":1728,
		"byteLength":12320,
		"target":34962,
		"byteStride":32
	}]
}