{
    "asset" : {
        "generator" : "Khronos glTF Blender I/O v1.7.33",
        "version" : "2.0"
    },
    "scene" : 0,
    "scenes" : [
        {
            "name" : "Scene",
            "nodes" : [
                0,
                1,
                2
            ]
        }
    ],
    "nodes" : [
        {
            "mesh" : 0,
            "name" : "keep_human_floor_01"
        },
        {
            "mesh" : 1,
            "name" : "keep_human_tower_01"
        },
        {
            "mesh" : 2,
            "name" : "keep_human_wall_01"
        }
    ],
    "materials" : [
        {
            "doubleSided" : true,
            "name" : "keep_human_floor_01",
            "pbrMetallicRoughness" : {
                "baseColorFactor" : [
                    0.800000011920929,
                    0.800000011920929,
                    0.800000011920929,
                    1
                ],
                "metallicFactor" : 0,
                "roughnessFactor" : 0.5
            }
        },
        {
            "doubleSided" : true,
            "name" : "keep_human_tower_01",
            "pbrMetallicRoughness" : {
                "baseColorFactor" : [
                    0.800000011920929,
                    0.800000011920929,
                    0.800000011920929,
                    1
                ],
                "metallicFactor" : 0,
                "roughnessFactor" : 0.5
            }
        },
        {
            "doubleSided" : true,
            "name" : "keep_human_wall_01",
            "pbrMetallicRoughness" : {
                "baseColorFactor" : [
                    0.800000011920929,
                    0.800000011920929,
                    0.800000011920929,
                    1
                ],
                "metallicFactor" : 0,
                "roughnessFactor" : 0.5
            }
        }
    ],
    "meshes" : [
        {
            "name" : "floor_01",
            "primitives" : [
                {
                    "attributes" : {
                        "POSITION" : 0,
                        "NORMAL" : 1,
                        "TEXCOORD_0" : 2
                    },
                    "indices" : 3,
                    "material" : 0
                }
            ]
        },
        {
            "name" : "tower_01",
            "primitives" : [
                {
                    "attributes" : {
                        "POSITION" : 4,
                        "NORMAL" : 5,
                        "TEXCOORD_0" : 6
                    },
                    "indices" : 7,
                    "material" : 1
                }
            ]
        },
        {
            "name" : "wall_01",
            "primitives" : [
                {
                    "attributes" : {
                        "POSITION" : 8,
                        "NORMAL" : 9,
                        "TEXCOORD_0" : 10
                    },
                    "indices" : 11,
                    "material" : 2
                }
            ]
        }
    ],
    "accessors" : [
        {
            "bufferView" : 0,
            "componentType" : 5126,
            "count" : 19,
            "max" : [
                4.330127239227295,
                0,
                5
            ],
            "min" : [
                -4.330127239227295,
                0,
                -5
            ],
            "type" : "VEC3"
        },
        {
            "bufferView" : 1,
            "componentType" : 5126,
            "count" : 19,
            "type" : "VEC3"
        },
        {
            "bufferView" : 2,
            "componentType" : 5126,
            "count" : 19,
            "type" : "VEC2"
        },
        {
            "bufferView" : 3,
            "componentType" : 5123,
            "count" : 54,
            "type" : "SCALAR"
        },
        {
            "bufferView" : 4,
            "componentType" : 5126,
            "count" : 222,
            "max" : [
                0.9298221468925476,
                6.245201110839844,
                0.9298221468925476
            ],
            "min" : [
                -0.9298221468925476,
                -6.75,
                -0.9298221468925476
            ],
            "type" : "VEC3"
        },
        {
            "bufferView" : 5,
            "componentType" : 5126,
            "count" : 222,
            "type" : "VEC3"
        },
        {
            "bufferView" : 6,
            "componentType" : 5126,
            "count" : 222,
            "type" : "VEC2"
        },
        {
            "bufferView" : 7,
            "componentType" : 5123,
            "count" : 330,
            "type" : "SCALAR"
        },
        {
            "bufferView" : 8,
            "componentType" : 5126,
            "count" : 436,
            "max" : [
                0.40980762243270874,
                4,
                2.736602544784546
            ],
            "min" : [
                -1.0662177801132202,
                -6.75,
                -2.736602544784546
            ],
            "type" : "VEC3"
        },
        {
            "bufferView" : 9,
            "componentType" : 5126,
            "count" : 436,
            "type" : "VEC3"
        },
        {
            "bufferView" : 10,
            "componentType" : 5126,
            "count" : 436,
            "type" : "VEC2"
        },
        {
            "bufferView" : 11,
            "componentType" : 5123,
            "count" : 468,
            "type" : "SCALAR"
        }
    ],
    "bufferViews" : [
        {
            "buffer" : 0,
            "byteLength" : 228,
            "byteOffset" : 0
        },
        {
            "buffer" : 0,
            "byteLength" : 228,
            "byteOffset" : 228
        },
        {
            "buffer" : 0,
            "byteLength" : 152,
            "byteOffset" : 456
        },
        {
            "buffer" : 0,
            "byteLength" : 108,
            "byteOffset" : 608
        },
        {
            "buffer" : 0,
            "byteLength" : 2664,
            "byteOffset" : 716
        },
        {
            "buffer" : 0,
            "byteLength" : 2664,
            "byteOffset" : 3380
        },
        {
            "buffer" : 0,
            "byteLength" : 1776,
            "byteOffset" : 6044
        },
        {
            "buffer" : 0,
            "byteLength" : 660,
            "byteOffset" : 7820
        },
        {
            "buffer" : 0,
            "byteLength" : 5232,
            "byteOffset" : 8480
        },
        {
            "buffer" : 0,
            "byteLength" : 5232,
            "byteOffset" : 13712
        },
        {
            "buffer" : 0,
            "byteLength" : 3488,
            "byteOffset" : 18944
        },
        {
            "buffer" : 0,
            "byteLength" : 936,
            "byteOffset" : 22432
        }
    ],
    "buffers" : [
        {
            "byteLength" : 23368,
            "uri" : "data:application/octet-stream;base64,"
        }
    ]
}
