{
	"asset":{
		"version":"2.0",
		"generator":"Created using the official Cinema 4D glTF Exporter 1.000x284978"
	},
	"scenes":[{
		"nodes":[0]
	}],
	"nodes":[{
		"name":"Props placement template",
		"mesh":0
	}],
	"meshes":[{
		"name":"Props placement template",
		"primitives":[{
			"attributes":{
				"POSITION":1,
				"NORMAL":2,
				"TEXCOORD_0":3
			},
			"indices":0
		}]
	}],
	"accessors":[{
		"bufferView":0,
		"type":"SCALAR",
		"componentType":5123,
		"count":60,
		"byteOffset":0,
		"min":[0],
		"max":[31]
	},
	{
		"bufferView":1,
		"type":"VEC3",
		"componentType":5126,
		"count":32,
		"byteOffset":0,
		"min":[-1.0825318098068238,
		0.0,
		-2.5],
		"max":[1.0825318098068238,
		2.0,
		2.5]
	},
	{
		"bufferView":1,
		"type":"VEC3",
		"componentType":5126,
		"count":32,
		"byteOffset":12,
		"min":[-1.0,
		-1.0,
		-0.8660253882408142],
		"max":[1.0,
		1.0,
		0.8660253882408142]
	},
	{
		"bufferView":1,
		"type":"VEC2",
		"componentType":5126,
		"count":32,
		"byteOffset":24,
		"min":[0.625,
		0.5],
		"max":[1.0,
		0.9330127239227295]
	}],
	"bufferViews":[{
		"buffer":0,
		"target":34963,
		"byteOffset":0,
		"byteLength":120
	},
	{
		"buffer":0,
		"target":34962,
		"byteOffset":120,
		"byteLength":1024,
		"byteStride":32
	}],
	"buffers":[{
		"uri":"data:application/octet-stream;base64,",
		"byteLength":1144
	}]
}