{
	"asset":{
		"version":"2.0",
		"generator":"Created using the official Cinema 4D glTF Exporter 1.000x284978"
	},
	"textures":[{
		"sampler":0,
		"source":0
	},
	{
		"sampler":1,
		"source":1
	},
	{
		"sampler":2,
		"source":2
	},
	{
		"sampler":3,
		"source":3
	},
	{
		"sampler":4,
		"source":4
	},
	{
		"sampler":5,
		"source":5
	},
	{
		"sampler":6,
		"source":6
	},
	{
		"sampler":7,
		"source":7
	},
	{
		"sampler":8,
		"source":8
	},
	{
		"sampler":9,
		"source":9
	},
	{
		"sampler":10,
		"source":10
	},
	{
		"sampler":11,
		"source":11
	},
	{
		"sampler":12,
		"source":12
	},
	{
		"sampler":13,
		"source":13
	},
	{
		"sampler":14,
		"source":14
	}],
	"scenes":[{
		"nodes":[0,
		1,
		2,
		3,
		4,
		7,
		10,
		13,
		16]
	}],
	"nodes":[{
		"name":"House 1.0",
		"mesh":0
	},
	{
		"name":"Village_human_hall_outer_01",
		"mesh":1
	},
	{
		"name":"Hall base_v0",
		"mesh":2
	},
	{
		"name":"Hall base_v0",
		"mesh":3
	},
	{
		"name":"Village_human_center_01",
		"children":[5,
		6]
	},
	{
		"name":"Village_human_center_01-Village_human_houses_01",
		"mesh":4
	},
	{
		"name":"Village_human_center_01-Village_human_basefloor_01",
		"mesh":5
	},
	{
		"name":"Village_human_center_02",
		"children":[8,
		9]
	},
	{
		"name":"Village_human_center_02-Village_human_houses_01",
		"mesh":6
	},
	{
		"name":"Village_human_center_02-Village_human_basefloor_01",
		"mesh":7
	},
	{
		"name":"Village_human_outer_01",
		"children":[11,
		12]
	},
	{
		"name":"Village_human_outer_01-Village_human_houses_01",
		"mesh":8
	},
	{
		"name":"Village_human_outer_01-Village_human_basefloor_01",
		"mesh":9
	},
	{
		"name":"Village_human_outer_02",
		"children":[14,
		15]
	},
	{
		"name":"Village_human_outer_02-Village_human_basefloor_01",
		"mesh":10
	},
	{
		"name":"Village_human_outer_02-Village_human_houses_01",
		"mesh":11
	},
	{
		"name":"Village_human_outer_03",
		"children":[17,
		18]
	},
	{
		"name":"Village_human_outer_03-Village_human_houses_01",
		"mesh":12
	},
	{
		"name":"Village_human_outer_03-Village_human_basefloor_01",
		"mesh":13
	}],
	"samplers":[{
		"magFilter":9729,
		"minFilter":9729,
		"wrapS":10497,
		"wrapT":10497
	},
	{
		"magFilter":9729,
		"minFilter":9729,
		"wrapS":10497,
		"wrapT":10497
	},
	{
		"magFilter":9729,
		"minFilter":9729,
		"wrapS":10497,
		"wrapT":10497
	},
	{
		"magFilter":9729,
		"minFilter":9729,
		"wrapS":10497,
		"wrapT":10497
	},
	{
		"magFilter":9729,
		"minFilter":9729,
		"wrapS":10497,
		"wrapT":10497
	},
	{
		"magFilter":9729,
		"minFilter":9729,
		"wrapS":10497,
		"wrapT":10497
	},
	{
		"magFilter":9729,
		"minFilter":9729,
		"wrapS":10497,
		"wrapT":10497
	},
	{
		"magFilter":9729,
		"minFilter":9729,
		"wrapS":10497,
		"wrapT":10497
	},
	{
		"magFilter":9729,
		"minFilter":9729,
		"wrapS":10497,
		"wrapT":10497
	},
	{
		"magFilter":9729,
		"minFilter":9729,
		"wrapS":10497,
		"wrapT":10497
	},
	{
		"magFilter":9729,
		"minFilter":9729,
		"wrapS":10497,
		"wrapT":10497
	},
	{
		"magFilter":9729,
		"minFilter":9729,
		"wrapS":10497,
		"wrapT":10497
	},
	{
		"magFilter":9729,
		"minFilter":9729,
		"wrapS":10497,
		"wrapT":10497
	},
	{
		"magFilter":9729,
		"minFilter":9729,
		"wrapS":10497,
		"wrapT":10497
	},
	{
		"magFilter":9729,
		"minFilter":9729,
		"wrapS":10497,
		"wrapT":10497
	}],
	"meshes":[{
		"name":"House 1.0",
		"primitives":[{
			"attributes":{
				"POSITION":1,
				"NORMAL":2,
				"TEXCOORD_0":3
			},
			"indices":0,
			"material":0
		}]
	},
	{
		"name":"Village_human_hall_outer_01",
		"primitives":[{
			"attributes":{
				"POSITION":5,
				"NORMAL":6,
				"TEXCOORD_0":7
			},
			"indices":4,
			"material":1
		}]
	},
	{
		"name":"Hall base_v0",
		"primitives":[{
			"attributes":{
				"POSITION":9,
				"NORMAL":10,
				"TEXCOORD_0":11
			},
			"indices":8,
			"material":2
		}]
	},
	{
		"name":"Hall base_v0",
		"primitives":[{
			"attributes":{
				"POSITION":13,
				"NORMAL":14,
				"TEXCOORD_0":15
			},
			"indices":12,
			"material":2
		}]
	},
	{
		"name":"Village_human_center_01-Village_human_houses_01",
		"primitives":[{
			"attributes":{
				"POSITION":17,
				"NORMAL":18,
				"TEXCOORD_0":19
			},
			"indices":16,
			"material":3
		}]
	},
	{
		"name":"Village_human_center_01-Village_human_basefloor_01",
		"primitives":[{
			"attributes":{
				"POSITION":21,
				"NORMAL":22,
				"TEXCOORD_0":23
			},
			"indices":20,
			"material":4
		}]
	},
	{
		"name":"Village_human_center_02-Village_human_houses_01",
		"primitives":[{
			"attributes":{
				"POSITION":25,
				"NORMAL":26,
				"TEXCOORD_0":27
			},
			"indices":24,
			"material":3
		}]
	},
	{
		"name":"Village_human_center_02-Village_human_basefloor_01",
		"primitives":[{
			"attributes":{
				"POSITION":29,
				"NORMAL":30,
				"TEXCOORD_0":31
			},
			"indices":28,
			"material":4
		}]
	},
	{
		"name":"Village_human_outer_01-Village_human_houses_01",
		"primitives":[{
			"attributes":{
				"POSITION":33,
				"NORMAL":34,
				"TEXCOORD_0":35
			},
			"indices":32,
			"material":3
		}]
	},
	{
		"name":"Village_human_outer_01-Village_human_basefloor_01",
		"primitives":[{
			"attributes":{
				"POSITION":37,
				"NORMAL":38,
				"TEXCOORD_0":39
			},
			"indices":36,
			"material":4
		}]
	},
	{
		"name":"Village_human_outer_02-Village_human_basefloor_01",
		"primitives":[{
			"attributes":{
				"POSITION":41,
				"NORMAL":42,
				"TEXCOORD_0":43
			},
			"indices":40,
			"material":4
		}]
	},
	{
		"name":"Village_human_outer_02-Village_human_houses_01",
		"primitives":[{
			"attributes":{
				"POSITION":45,
				"NORMAL":46,
				"TEXCOORD_0":47
			},
			"indices":44,
			"material":3
		}]
	},
	{
		"name":"Village_human_outer_03-Village_human_houses_01",
		"primitives":[{
			"attributes":{
				"POSITION":49,
				"NORMAL":50,
				"TEXCOORD_0":51
			},
			"indices":48,
			"material":3
		}]
	},
	{
		"name":"Village_human_outer_03-Village_human_basefloor_01",
		"primitives":[{
			"attributes":{
				"POSITION":53,
				"NORMAL":54,
				"TEXCOORD_0":55
			},
			"indices":52,
			"material":4
		}]
	}],
	"accessors":[{
		"bufferView":0,
		"type":"SCALAR",
		"componentType":5123,
		"count":1716,
		"byteOffset":0,
		"min":[0],
		"max":[881]
	},
	{
		"bufferView":1,
		"type":"VEC3",
		"componentType":5126,
		"count":882,
		"byteOffset":0,
		"min":[-1.804361343383789,
		-9.94759834299305e-16,
		-1.5121145248413087],
		"max":[1.7604881525039673,
		2.549999952316284,
		1.2933845520019532]
	},
	{
		"bufferView":1,
		"type":"VEC3",
		"componentType":5126,
		"count":882,
		"byteOffset":12,
		"min":[-0.9742096066474915,
		-1.0,
		-0.9913221597671509],
		"max":[0.9801710247993469,
		1.0,
		0.965925931930542]
	},
	{
		"bufferView":1,
		"type":"VEC2",
		"componentType":5126,
		"count":882,
		"byteOffset":24,
		"min":[0.00488730613142252,
		0.00488730613142252],
		"max":[0.9951126575469971,
		0.911636471748352]
	},
	{
		"bufferView":2,
		"type":"SCALAR",
		"componentType":5123,
		"count":2766,
		"byteOffset":0,
		"min":[0],
		"max":[930]
	},
	{
		"bufferView":3,
		"type":"VEC3",
		"componentType":5126,
		"count":931,
		"byteOffset":0,
		"min":[-3.6161491870880129,
		-0.15000000596046449,
		-4.0338568687438969],
		"max":[3.6622724533081056,
		1.2999999523162842,
		4.166250228881836]
	},
	{
		"bufferView":3,
		"type":"VEC3",
		"componentType":5126,
		"count":931,
		"byteOffset":12,
		"min":[-1.0,
		-1.0,
		-1.0],
		"max":[1.0,
		1.0,
		1.0]
	},
	{
		"bufferView":3,
		"type":"VEC2",
		"componentType":5126,
		"count":931,
		"byteOffset":24,
		"min":[0.011766339652240277,
		0.008147483691573143],
		"max":[0.963441014289856,
		0.9848827123641968]
	},
	{
		"bufferView":4,
		"type":"SCALAR",
		"componentType":5123,
		"count":270,
		"byteOffset":0,
		"min":[0],
		"max":[196]
	},
	{
		"bufferView":5,
		"type":"VEC3",
		"componentType":5126,
		"count":197,
		"byteOffset":0,
		"min":[-4.330127239227295,
		-6.0,
		-5.0],
		"max":[4.330127239227295,
		0.07000000029802323,
		5.0]
	},
	{
		"bufferView":5,
		"type":"VEC3",
		"componentType":5126,
		"count":197,
		"byteOffset":12,
		"min":[-0.9997634887695313,
		0.005414585582911968,
		-0.9661238193511963],
		"max":[0.9997713565826416,
		1.0,
		0.9287332892417908]
	},
	{
		"bufferView":5,
		"type":"VEC2",
		"componentType":5126,
		"count":197,
		"byteOffset":24,
		"min":[0.008673313073813916,
		0.011247344315052033],
		"max":[0.9830884337425232,
		0.9846631288528442]
	},
	{
		"bufferView":6,
		"type":"SCALAR",
		"componentType":5123,
		"count":270,
		"byteOffset":0,
		"min":[0],
		"max":[196]
	},
	{
		"bufferView":7,
		"type":"VEC3",
		"componentType":5126,
		"count":197,
		"byteOffset":0,
		"min":[-4.330127239227295,
		-6.0,
		-5.0],
		"max":[4.330127239227295,
		0.07000000029802323,
		5.0]
	},
	{
		"bufferView":7,
		"type":"VEC3",
		"componentType":5126,
		"count":197,
		"byteOffset":12,
		"min":[-0.9997634887695313,
		0.005414585582911968,
		-0.9661238193511963],
		"max":[0.9997713565826416,
		1.0,
		0.9287332892417908]
	},
	{
		"bufferView":7,
		"type":"VEC2",
		"componentType":5126,
		"count":197,
		"byteOffset":24,
		"min":[0.008673313073813916,
		0.011247344315052033],
		"max":[0.9830884337425232,
		0.9846631288528442]
	},
	{
		"bufferView":8,
		"type":"SCALAR",
		"componentType":5123,
		"count":684,
		"byteOffset":0,
		"min":[0],
		"max":[297]
	},
	{
		"bufferView":9,
		"type":"VEC3",
		"componentType":5126,
		"count":298,
		"byteOffset":0,
		"min":[-1.6613030433654786,
		0.3199999928474426,
		-1.6355054378509522],
		"max":[1.5319880247116089,
		1.1889055967330933,
		1.7492026090621949]
	},
	{
		"bufferView":9,
		"type":"VEC3",
		"componentType":5126,
		"count":298,
		"byteOffset":12,
		"min":[-0.9974687695503235,
		-1.0,
		-0.9975938200950623],
		"max":[0.963312566280365,
		0.771906316280365,
		0.9804375171661377]
	},
	{
		"bufferView":9,
		"type":"VEC2",
		"componentType":5126,
		"count":298,
		"byteOffset":24,
		"min":[0.04215748608112335,
		0.01422843523323536],
		"max":[0.9587353467941284,
		0.9656407833099365]
	},
	{
		"bufferView":10,
		"type":"SCALAR",
		"componentType":5123,
		"count":600,
		"byteOffset":0,
		"min":[0],
		"max":[233]
	},
	{
		"bufferView":11,
		"type":"VEC3",
		"componentType":5126,
		"count":234,
		"byteOffset":0,
		"min":[-1.620448112487793,
		0.0,
		-1.5988374948501588],
		"max":[1.4693266153335572,
		0.3997095823287964,
		1.6985750198364258]
	},
	{
		"bufferView":11,
		"type":"VEC3",
		"componentType":5126,
		"count":234,
		"byteOffset":12,
		"min":[-0.9984375238418579,
		-1.0,
		-0.9980000257492065],
		"max":[0.9640625715255737,
		1.0,
		0.9797812700271606]
	},
	{
		"bufferView":11,
		"type":"VEC2",
		"componentType":5126,
		"count":234,
		"byteOffset":24,
		"min":[0.012727636843919754,
		0.09836934506893158],
		"max":[0.961248517036438,
		0.9685661792755127]
	},
	{
		"bufferView":12,
		"type":"SCALAR",
		"componentType":5123,
		"count":1008,
		"byteOffset":0,
		"min":[0],
		"max":[534]
	},
	{
		"bufferView":13,
		"type":"VEC3",
		"componentType":5126,
		"count":535,
		"byteOffset":0,
		"min":[-0.8152022361755371,
		-9.592327313926179e-16,
		-1.3406344652175904],
		"max":[0.967491090297699,
		1.22617506980896,
		1.3155025243759156]
	},
	{
		"bufferView":13,
		"type":"VEC3",
		"componentType":5126,
		"count":535,
		"byteOffset":12,
		"min":[-0.9957500696182251,
		-1.0,
		-0.9979375600814819],
		"max":[0.9955313205718994,
		0.9995625615119934,
		0.9980313181877136]
	},
	{
		"bufferView":13,
		"type":"VEC2",
		"componentType":5126,
		"count":535,
		"byteOffset":24,
		"min":[0.0409659743309021,
		0.16618788242340089],
		"max":[0.9820477962493897,
		0.9938000440597534]
	},
	{
		"bufferView":14,
		"type":"SCALAR",
		"componentType":5123,
		"count":60,
		"byteOffset":0,
		"min":[0],
		"max":[39]
	},
	{
		"bufferView":15,
		"type":"VEC3",
		"componentType":5126,
		"count":40,
		"byteOffset":0,
		"min":[-0.7400000095367432,
		0.0,
		-1.2521188259124756],
		"max":[0.14000000059604646,
		0.30000001192092898,
		1.2521188259124756]
	},
	{
		"bufferView":15,
		"type":"VEC3",
		"componentType":5126,
		"count":40,
		"byteOffset":12,
		"min":[-1.0,
		-1.0,
		-1.0],
		"max":[1.0,
		1.0,
		1.0]
	},
	{
		"bufferView":15,
		"type":"VEC2",
		"componentType":5126,
		"count":40,
		"byteOffset":24,
		"min":[0.05321374535560608,
		0.024874333292245866],
		"max":[0.9610589742660523,
		0.8736169338226318]
	},
	{
		"bufferView":16,
		"type":"SCALAR",
		"componentType":5123,
		"count":696,
		"byteOffset":0,
		"min":[0],
		"max":[345]
	},
	{
		"bufferView":17,
		"type":"VEC3",
		"componentType":5126,
		"count":346,
		"byteOffset":0,
		"min":[-0.9778834581375122,
		0.4000000059604645,
		-1.5200492143630982],
		"max":[0.8298287987709045,
		1.2982325553894044,
		1.7518866062164307]
	},
	{
		"bufferView":17,
		"type":"VEC3",
		"componentType":5126,
		"count":346,
		"byteOffset":12,
		"min":[-0.9842500686645508,
		-1.0,
		-0.9773125648498535],
		"max":[0.9842500686645508,
		0.9992188215255737,
		0.9774063229560852]
	},
	{
		"bufferView":17,
		"type":"VEC2",
		"componentType":5126,
		"count":346,
		"byteOffset":24,
		"min":[0.02857738360762596,
		0.016939550638198854],
		"max":[0.9793499708175659,
		0.9356911182403565]
	},
	{
		"bufferView":18,
		"type":"SCALAR",
		"componentType":5123,
		"count":222,
		"byteOffset":0,
		"min":[0],
		"max":[119]
	},
	{
		"bufferView":19,
		"type":"VEC3",
		"componentType":5126,
		"count":120,
		"byteOffset":0,
		"min":[-0.9213221669197083,
		-1.184510356466717e-8,
		-1.486371636390686],
		"max":[1.0066121816635132,
		0.5199999809265137,
		1.6300873756408692]
	},
	{
		"bufferView":19,
		"type":"VEC3",
		"componentType":5126,
		"count":120,
		"byteOffset":12,
		"min":[-0.9888125658035278,
		-1.0,
		-0.9847813248634338],
		"max":[0.9847813248634338,
		1.0,
		0.9847813248634338]
	},
	{
		"bufferView":19,
		"type":"VEC2",
		"componentType":5126,
		"count":120,
		"byteOffset":24,
		"min":[0.04087597131729126,
		0.1670514941215515],
		"max":[0.9662991762161255,
		0.9876536130905151]
	},
	{
		"bufferView":20,
		"type":"SCALAR",
		"componentType":5123,
		"count":108,
		"byteOffset":0,
		"min":[0],
		"max":[51]
	},
	{
		"bufferView":21,
		"type":"VEC3",
		"componentType":5126,
		"count":52,
		"byteOffset":0,
		"min":[-0.7181792855262756,
		-1.0728836485895954e-8,
		-1.5824871063232422],
		"max":[0.8410511612892151,
		0.320000022649765,
		-0.08182068914175034]
	},
	{
		"bufferView":21,
		"type":"VEC3",
		"componentType":5126,
		"count":52,
		"byteOffset":12,
		"min":[-0.8659687638282776,
		-1.0,
		-0.8659687638282776],
		"max":[0.8659687638282776,
		1.0,
		0.8659687638282776]
	},
	{
		"bufferView":21,
		"type":"VEC2",
		"componentType":5126,
		"count":52,
		"byteOffset":24,
		"min":[0.010998254641890526,
		0.010998254641890526],
		"max":[0.9631862640380859,
		0.9540858268737793]
	},
	{
		"bufferView":22,
		"type":"SCALAR",
		"componentType":5123,
		"count":960,
		"byteOffset":0,
		"min":[0],
		"max":[486]
	},
	{
		"bufferView":23,
		"type":"VEC3",
		"componentType":5126,
		"count":487,
		"byteOffset":0,
		"min":[-0.8301076292991638,
		-1.310773178886393e-8,
		-1.7076735496520997],
		"max":[1.0483465194702149,
		1.0982325077056885,
		1.5693880319595338]
	},
	{
		"bufferView":23,
		"type":"VEC3",
		"componentType":5126,
		"count":487,
		"byteOffset":12,
		"min":[-0.999093770980835,
		-1.0,
		-0.9961875677108765],
		"max":[0.999125063419342,
		1.0,
		0.9999688267707825]
	},
	{
		"bufferView":23,
		"type":"VEC2",
		"componentType":5126,
		"count":487,
		"byteOffset":24,
		"min":[0.010620756074786187,
		0.03700828552246094],
		"max":[0.9941719770431519,
		0.9927247762680054]
	},
	{
		"bufferView":24,
		"type":"SCALAR",
		"componentType":5123,
		"count":912,
		"byteOffset":0,
		"min":[0],
		"max":[411]
	},
	{
		"bufferView":25,
		"type":"VEC3",
		"componentType":5126,
		"count":412,
		"byteOffset":0,
		"min":[-0.9264230132102966,
		-9.53674295089968e-9,
		-1.977462887763977],
		"max":[1.2259348630905152,
		1.1782325506210328,
		1.7126168012619019]
	},
	{
		"bufferView":25,
		"type":"VEC3",
		"componentType":5126,
		"count":412,
		"byteOffset":12,
		"min":[-0.8653125166893005,
		-1.0,
		-0.8661875128746033],
		"max":[0.8653125166893005,
		0.9992188215255737,
		0.8655312657356262]
	},
	{
		"bufferView":25,
		"type":"VEC2",
		"componentType":5126,
		"count":412,
		"byteOffset":24,
		"min":[0.00760852824896574,
		0.005827944725751877],
		"max":[0.977173924446106,
		0.9849872589111328]
	},
	{
		"bufferView":26,
		"type":"SCALAR",
		"componentType":5123,
		"count":84,
		"byteOffset":0,
		"min":[0],
		"max":[47]
	},
	{
		"bufferView":27,
		"type":"VEC3",
		"componentType":5126,
		"count":48,
		"byteOffset":0,
		"min":[-0.5155191421508789,
		-1.812314565086126e-8,
		0.2870946526527405],
		"max":[1.0004934072494507,
		0.4000000059604645,
		1.63290536403656]
	},
	{
		"bufferView":27,
		"type":"VEC3",
		"componentType":5126,
		"count":48,
		"byteOffset":12,
		"min":[-0.8659687638282776,
		-1.0,
		-0.8659687638282776],
		"max":[0.8659687638282776,
		1.0,
		0.8659687638282776]
	},
	{
		"bufferView":27,
		"type":"VEC2",
		"componentType":5126,
		"count":48,
		"byteOffset":24,
		"min":[0.06553468108177185,
		0.050684623420238498],
		"max":[0.9804425239562988,
		0.7699239253997803]
	}],
	"bufferViews":[{
		"buffer":0,
		"byteOffset":0,
		"byteLength":3432,
		"target":34963
	},
	{
		"buffer":0,
		"byteOffset":3432,
		"byteLength":28224,
		"target":34962,
		"byteStride":32
	},
	{
		"buffer":1,
		"byteOffset":0,
		"byteLength":5532,
		"target":34963
	},
	{
		"buffer":1,
		"byteOffset":5532,
		"byteLength":29792,
		"target":34962,
		"byteStride":32
	},
	{
		"buffer":2,
		"byteOffset":0,
		"byteLength":540,
		"target":34963
	},
	{
		"buffer":2,
		"byteOffset":540,
		"byteLength":6304,
		"target":34962,
		"byteStride":32
	},
	{
		"buffer":3,
		"byteOffset":0,
		"byteLength":540,
		"target":34963
	},
	{
		"buffer":3,
		"byteOffset":540,
		"byteLength":6304,
		"target":34962,
		"byteStride":32
	},
	{
		"buffer":4,
		"byteOffset":0,
		"byteLength":1368,
		"target":34963
	},
	{
		"buffer":4,
		"byteOffset":1368,
		"byteLength":9536,
		"target":34962,
		"byteStride":32
	},
	{
		"buffer":5,
		"byteOffset":0,
		"byteLength":1200,
		"target":34963
	},
	{
		"buffer":5,
		"byteOffset":1200,
		"byteLength":7488,
		"target":34962,
		"byteStride":32
	},
	{
		"buffer":6,
		"byteOffset":0,
		"byteLength":2016,
		"target":34963
	},
	{
		"buffer":6,
		"byteOffset":2016,
		"byteLength":17120,
		"target":34962,
		"byteStride":32
	},
	{
		"buffer":7,
		"byteOffset":0,
		"byteLength":120,
		"target":34963
	},
	{
		"buffer":7,
		"byteOffset":120,
		"byteLength":1280,
		"target":34962,
		"byteStride":32
	},
	{
		"buffer":8,
		"byteOffset":0,
		"byteLength":1392,
		"target":34963
	},
	{
		"buffer":8,
		"byteOffset":1392,
		"byteLength":11072,
		"target":34962,
		"byteStride":32
	},
	{
		"buffer":9,
		"byteOffset":0,
		"byteLength":444,
		"target":34963
	},
	{
		"buffer":9,
		"byteOffset":444,
		"byteLength":3840,
		"target":34962,
		"byteStride":32
	},
	{
		"buffer":10,
		"byteOffset":0,
		"byteLength":216,
		"target":34963
	},
	{
		"buffer":10,
		"byteOffset":216,
		"byteLength":1664,
		"target":34962,
		"byteStride":32
	},
	{
		"buffer":11,
		"byteOffset":0,
		"byteLength":1920,
		"target":34963
	},
	{
		"buffer":11,
		"byteOffset":1920,
		"byteLength":15584,
		"target":34962,
		"byteStride":32
	},
	{
		"buffer":12,
		"byteOffset":0,
		"byteLength":1824,
		"target":34963
	},
	{
		"buffer":12,
		"byteOffset":1824,
		"byteLength":13184,
		"target":34962,
		"byteStride":32
	},
	{
		"buffer":13,
		"byteOffset":0,
		"byteLength":168,
		"target":34963
	},
	{
		"buffer":13,
		"byteOffset":168,
		"byteLength":1536,
		"target":34962,
		"byteStride":32
	}],
	"buffers":[{
		"uri":"data:application/octet-stream;base64,",
		"byteLength":31656
	},
	{
		"uri":"data:application/octet-stream;base64,",
		"byteLength":35324
	},
	{
		"uri":"data:application/octet-stream;base64,",
		"byteLength":6844
	},
	{
		"uri":"data:application/octet-stream;base64,",
		"byteLength":6844
	},
	{
		"uri":"data:application/octet-stream;base64,",
		"byteLength":10904
	},
	{
		"uri":"data:application/octet-stream;base64,",
		"byteLength":8688
	},
	{
		"uri":"data:application/octet-stream;base64,",
		"byteLength":19136
	},
	{
		"uri":"data:application/octet-stream;base64,",
		"byteLength":1400
	},
	{
		"uri":"data:application/octet-stream;base64,",
		"byteLength":12464
	},
	{
		"uri":"data:application/octet-stream;base64,",
		"byteLength":4284
	},
	{
		"uri":"data:application/octet-stream;base64,",
		"byteLength":1880
	},
	{
		"uri":"data:application/octet-stream;base64,",
		"byteLength":17504
	},
	{
		"uri":"data:application/octet-stream;base64,",
		"byteLength":15008
	},
	{
		"uri":"data:application/octet-stream;base64,",
		"byteLength":1704
	}],
	"images":[{
		"uri":"data:image/jpeg;base64,"
	},
	{
		"uri":"data:image/jpeg;base64,"
	},
	{
		"uri":"data:image/jpeg;base64,"
	},
	{
		"uri":"data:image/jpeg;base64,"
	},
	{
		"uri":"data:image/jpeg;base64,"
	},
	{
		"uri":"data:image/jpeg;base64,"
	},
	{
		"uri":"data:image/jpeg;base64,"
	},
	{
		"uri":"data:image/jpeg;base64,"
	},
	{
		"uri":"data:image/jpeg;base64,"
	},
	{
		"uri":"data:image/jpeg;base64,"
	},
	{
		"uri":"data:image/jpeg;base64,"
	},
	{
		"uri":"data:image/jpeg;base64,"
	},
	{
		"uri":"data:image/jpeg;base64,"
	},
	{
		"uri":"data:image/jpeg;base64,"
	},
	{
		"uri":"data:image/jpeg;base64,"
	}],
	"materials":[{
		"normalTexture":{
			"index":2,
			"scale":1.0
		},
		"pbrMetallicRoughness":{
			"baseColorTexture":{
				"index":0
			},
			"baseColorFactor":[0.8,
			0.8,
			0.8,
			1.0],
			"metallicRoughnessTexture":{
				"index":1
			},
			"metallicFactor":0.0,
			"roughnessFactor":1.0
		},
		"emissiveFactor":[0.0,
		0.0,
		0.0],
		"alphaMode":"OPAQUE",
		"doubleSided":true,
		"name":"Village_human_hall_01"
	},
	{
		"normalTexture":{
			"index":5,
			"scale":1.0
		},
		"pbrMetallicRoughness":{
			"baseColorTexture":{
				"index":3
			},
			"baseColorFactor":[0.8,
			0.8,
			0.8,
			1.0],
			"metallicRoughnessTexture":{
				"index":4
			},
			"metallicFactor":0.0,
			"roughnessFactor":1.0
		},
		"emissiveFactor":[0.0,
		0.0,
		0.0],
		"alphaMode":"OPAQUE",
		"doubleSided":true,
		"name":"Village_human_props_01"
	},
	{
		"normalTexture":{
			"index":8,
			"scale":1.0
		},
		"pbrMetallicRoughness":{
			"baseColorTexture":{
				"index":6
			},
			"baseColorFactor":[0.8,
			0.8,
			0.8,
			1.0],
			"metallicRoughnessTexture":{
				"index":7
			},
			"metallicFactor":0.0,
			"roughnessFactor":1.0
		},
		"emissiveFactor":[0.0,
		0.0,
		0.0],
		"alphaMode":"OPAQUE",
		"doubleSided":true,
		"name":"Village_base"
	},
	{
		"normalTexture":{
			"index":11,
			"scale":1.0
		},
		"pbrMetallicRoughness":{
			"baseColorTexture":{
				"index":9
			},
			"baseColorFactor":[0.8,
			0.8,
			0.8,
			1.0],
			"metallicRoughnessTexture":{
				"index":10
			},
			"metallicFactor":0.0,
			"roughnessFactor":1.0
		},
		"emissiveFactor":[0.0,
		0.0,
		0.0],
		"alphaMode":"OPAQUE",
		"doubleSided":true,
		"name":"Village_human_houses_01"
	},
	{
		"normalTexture":{
			"index":14,
			"scale":1.0
		},
		"pbrMetallicRoughness":{
			"baseColorTexture":{
				"index":12
			},
			"baseColorFactor":[0.8,
			0.8,
			0.8,
			1.0],
			"metallicRoughnessTexture":{
				"index":13
			},
			"metallicFactor":0.0,
			"roughnessFactor":1.0
		},
		"emissiveFactor":[0.0,
		0.0,
		0.0],
		"alphaMode":"OPAQUE",
		"doubleSided":true,
		"name":"Village_human_basefloor_01"
	}]
}