{
	"nodes":[{
		"name":"castle_human_V01",
		"children":[1,
		2,
		3,
		4,
		5]
	},
	{
		"name":"Keep_human_floor_01",
		"mesh":0
	},
	{
		"name":"Keep_human_wall_01",
		"mesh":1
	},
	{
		"name":"Keep_human_tower_01",
		"mesh":2
	},
	{
		"name":"Castle_human_wall_01",
		"mesh":3
	},
	{
		"name":"Castle_human_tower_01",
		"mesh":4
	}],
	"asset":{
		"version":"2.0",
		"generator":"Created using the official Cinema 4D glTF Exporter 1.000x284978"
	},
	"scenes":[{
		"nodes":[0]
	}],
	"meshes":[{
		"name":"Keep_human_floor_01",
		"primitives":[{
			"attributes":{
				"POSITION":1,
				"NORMAL":2,
				"TEXCOORD_0":3
			},
			"indices":0,
			"material":0
		}]
	},
	{
		"name":"Keep_human_wall_01",
		"primitives":[{
			"attributes":{
				"POSITION":5,
				"NORMAL":6,
				"TEXCOORD_0":7
			},
			"indices":4,
			"material":1
		}]
	},
	{
		"name":"Keep_human_tower_01",
		"primitives":[{
			"attributes":{
				"POSITION":9,
				"NORMAL":10,
				"TEXCOORD_0":11
			},
			"indices":8,
			"material":2
		}]
	},
	{
		"name":"Castle_human_wall_01",
		"primitives":[{
			"attributes":{
				"POSITION":13,
				"NORMAL":14,
				"TEXCOORD_0":15
			},
			"indices":12,
			"material":3
		}]
	},
	{
		"name":"Castle_human_tower_01",
		"primitives":[{
			"attributes":{
				"POSITION":17,
				"NORMAL":18,
				"TEXCOORD_0":19
			},
			"indices":16,
			"material":4
		}]
	}],
	"accessors":[{
		"bufferView":0,
		"type":"SCALAR",
		"componentType":5123,
		"count":54,
		"byteOffset":0,
		"min":[0],
		"max":[12]
	},
	{
		"bufferView":1,
		"type":"VEC3",
		"componentType":5126,
		"count":13,
		"byteOffset":0,
		"min":[-4.330127239227295,
		0.0,
		-5.0],
		"max":[4.330127239227295,
		0.0,
		5.0]
	},
	{
		"bufferView":1,
		"type":"VEC3",
		"componentType":5126,
		"count":13,
		"byteOffset":12,
		"min":[0.0,
		1.0,
		0.0],
		"max":[0.0,
		1.0,
		0.0]
	},
	{
		"bufferView":1,
		"type":"VEC2",
		"componentType":5126,
		"count":13,
		"byteOffset":24,
		"min":[0.07167372107505799,
		0.005411445163190365],
		"max":[0.9283262491226196,
		0.9945884943008423]
	},
	{
		"bufferView":2,
		"type":"SCALAR",
		"componentType":5123,
		"count":372,
		"byteOffset":0,
		"min":[0],
		"max":[286]
	},
	{
		"bufferView":3,
		"type":"VEC3",
		"componentType":5126,
		"count":287,
		"byteOffset":0,
		"min":[-0.46000000834465029,
		-6.0,
		-2.765470027923584],
		"max":[0.4598076343536377,
		4.0,
		2.765470027923584]
	},
	{
		"bufferView":3,
		"type":"VEC3",
		"componentType":5126,
		"count":287,
		"byteOffset":12,
		"min":[-1.0,
		-1.0,
		-0.9971993565559387],
		"max":[1.0,
		1.0,
		0.9971993565559387]
	},
	{
		"bufferView":3,
		"type":"VEC2",
		"componentType":5126,
		"count":287,
		"byteOffset":24,
		"min":[0.006623577326536179,
		0.024981632828712465],
		"max":[0.9732057452201843,
		0.984420895576477]
	},
	{
		"bufferView":4,
		"type":"SCALAR",
		"componentType":5123,
		"count":234,
		"byteOffset":0,
		"min":[0],
		"max":[123]
	},
	{
		"bufferView":5,
		"type":"VEC3",
		"componentType":5126,
		"count":124,
		"byteOffset":0,
		"min":[-0.9298221468925476,
		-6.0,
		-0.9298221468925476],
		"max":[0.9298221468925476,
		6.245201110839844,
		0.9298221468925476]
	},
	{
		"bufferView":5,
		"type":"VEC3",
		"componentType":5126,
		"count":124,
		"byteOffset":12,
		"min":[-1.0,
		-1.0,
		-1.0],
		"max":[1.0,
		1.0,
		1.0]
	},
	{
		"bufferView":5,
		"type":"VEC2",
		"componentType":5126,
		"count":124,
		"byteOffset":24,
		"min":[0.011898629367351532,
		0.004911663942039013],
		"max":[0.9599964022636414,
		0.9950883388519287]
	},
	{
		"bufferView":6,
		"type":"SCALAR",
		"componentType":5123,
		"count":342,
		"byteOffset":0,
		"min":[0],
		"max":[177]
	},
	{
		"bufferView":7,
		"type":"VEC3",
		"componentType":5126,
		"count":178,
		"byteOffset":0,
		"min":[-0.46000000834465029,
		-6.0,
		-2.765470027923584],
		"max":[0.4598076343536377,
		2.0999999046325685,
		2.765470027923584]
	},
	{
		"bufferView":7,
		"type":"VEC3",
		"componentType":5126,
		"count":178,
		"byteOffset":12,
		"min":[-1.0,
		-1.0,
		-0.9950372576713562],
		"max":[1.0,
		1.0,
		0.9950372576713562]
	},
	{
		"bufferView":7,
		"type":"VEC2",
		"componentType":5126,
		"count":178,
		"byteOffset":24,
		"min":[0.004142608493566513,
		0.04012737423181534],
		"max":[0.9945328235626221,
		0.9921668767929077]
	},
	{
		"bufferView":8,
		"type":"SCALAR",
		"componentType":5123,
		"count":156,
		"byteOffset":0,
		"min":[0],
		"max":[92]
	},
	{
		"bufferView":9,
		"type":"VEC3",
		"componentType":5126,
		"count":93,
		"byteOffset":0,
		"min":[-0.6000000238418579,
		-6.0,
		-0.6000000238418579],
		"max":[0.6000000238418579,
		2.799999952316284,
		0.6000000238418579]
	},
	{
		"bufferView":9,
		"type":"VEC3",
		"componentType":5126,
		"count":93,
		"byteOffset":12,
		"min":[-1.0,
		-1.0,
		-1.0],
		"max":[1.0,
		1.0,
		1.0]
	},
	{
		"bufferView":9,
		"type":"VEC2",
		"componentType":5126,
		"count":93,
		"byteOffset":24,
		"min":[0.13391843438148499,
		0.006180545315146446],
		"max":[0.8150219917297363,
		0.9938194751739502]
	}],
	"bufferViews":[{
		"buffer":0,
		"byteOffset":0,
		"byteLength":108,
		"target":34963
	},
	{
		"buffer":0,
		"byteOffset":108,
		"byteLength":416,
		"target":34962,
		"byteStride":32
	},
	{
		"buffer":1,
		"byteOffset":0,
		"byteLength":744,
		"target":34963
	},
	{
		"buffer":1,
		"byteOffset":744,
		"byteLength":9184,
		"target":34962,
		"byteStride":32
	},
	{
		"buffer":2,
		"byteOffset":0,
		"byteLength":468,
		"target":34963
	},
	{
		"buffer":2,
		"byteOffset":468,
		"byteLength":3968,
		"target":34962,
		"byteStride":32
	},
	{
		"buffer":3,
		"byteOffset":0,
		"byteLength":684,
		"target":34963
	},
	{
		"buffer":3,
		"byteOffset":684,
		"byteLength":5696,
		"target":34962,
		"byteStride":32
	},
	{
		"buffer":4,
		"byteOffset":0,
		"byteLength":312,
		"target":34963
	},
	{
		"buffer":4,
		"byteOffset":312,
		"byteLength":2976,
		"target":34962,
		"byteStride":32
	}],
	"buffers":[{
		"uri":"data:application/octet-stream;base64,",
		"byteLength":524
	},
	{
		"uri":"data:application/octet-stream;base64,",
		"byteLength":9928
	},
	{
		"uri":"data:application/octet-stream;base64,",
		"byteLength":4436
	},
	{
		"uri":"data:application/octet-stream;base64,",
		"byteLength":6380
	},
	{
		"uri":"data:application/octet-stream;base64,",
		"byteLength":3288
	}],
	"images":[{
		"uri":"data:image/jpeg;base64,"
	},
	{
		"uri":"data:image/jpeg;base64,"
	},
	{
		"uri":"data:image/jpeg;base64,"
	},
	{
		"uri":"data:image/jpeg;base64,"
	},
	{
		"uri":"data:image/jpeg;base64,"
	},
	{
		"uri":"data:image/jpeg;base64,"
	},
	{
		"uri":"data:image/jpeg;base64,"
	},
	{
		"uri":"data:image/jpeg;base64,"
	},
	{
		"uri":"data:image/jpeg;base64,"
	},
	{
		"uri":"data:image/jpeg;base64,"
	},
	{
		"uri":"data:image/jpeg;base64,"
	},
	{
		"uri":"data:image/jpeg;base64,"
	},
	{
		"uri":"data:image/jpeg;base64,"
	},
	{
		"uri":"data:image/jpeg;base64,"
	},
	{
		"uri":"data:image/jpeg;base64,"
	}],
	"samplers":[{
		"magFilter":9729,
		"minFilter":9729,
		"wrapS":10497,
		"wrapT":10497
	},
	{
		"magFilter":9729,
		"minFilter":9729,
		"wrapS":10497,
		"wrapT":10497
	},
	{
		"magFilter":9729,
		"minFilter":9729,
		"wrapS":10497,
		"wrapT":10497
	},
	{
		"magFilter":9729,
		"minFilter":9729,
		"wrapS":10497,
		"wrapT":10497
	},
	{
		"magFilter":9729,
		"minFilter":9729,
		"wrapS":10497,
		"wrapT":10497
	},
	{
		"magFilter":9729,
		"minFilter":9729,
		"wrapS":10497,
		"wrapT":10497
	},
	{
		"magFilter":9729,
		"minFilter":9729,
		"wrapS":10497,
		"wrapT":10497
	},
	{
		"magFilter":9729,
		"minFilter":9729,
		"wrapS":10497,
		"wrapT":10497
	},
	{
		"magFilter":9729,
		"minFilter":9729,
		"wrapS":10497,
		"wrapT":10497
	},
	{
		"magFilter":9729,
		"minFilter":9729,
		"wrapS":10497,
		"wrapT":10497
	},
	{
		"magFilter":9729,
		"minFilter":9729,
		"wrapS":10497,
		"wrapT":10497
	},
	{
		"magFilter":9729,
		"minFilter":9729,
		"wrapS":10497,
		"wrapT":10497
	},
	{
		"magFilter":9729,
		"minFilter":9729,
		"wrapS":10497,
		"wrapT":10497
	},
	{
		"magFilter":9729,
		"minFilter":9729,
		"wrapS":10497,
		"wrapT":10497
	},
	{
		"magFilter":9729,
		"minFilter":9729,
		"wrapS":10497,
		"wrapT":10497
	}],
	"textures":[{
		"sampler":0,
		"source":0
	},
	{
		"sampler":1,
		"source":1
	},
	{
		"sampler":2,
		"source":2
	},
	{
		"sampler":3,
		"source":3
	},
	{
		"sampler":4,
		"source":4
	},
	{
		"sampler":5,
		"source":5
	},
	{
		"sampler":6,
		"source":6
	},
	{
		"sampler":7,
		"source":7
	},
	{
		"sampler":8,
		"source":8
	},
	{
		"sampler":9,
		"source":9
	},
	{
		"sampler":10,
		"source":10
	},
	{
		"sampler":11,
		"source":11
	},
	{
		"sampler":12,
		"source":12
	},
	{
		"sampler":13,
		"source":13
	},
	{
		"sampler":14,
		"source":14
	}],
	"materials":[{
		"pbrMetallicRoughness":{
			"baseColorTexture":{
				"index":0
			},
			"baseColorFactor":[0.8,
			0.8,
			0.8,
			1.0],
			"metallicRoughnessTexture":{
				"index":1
			},
			"metallicFactor":0.0,
			"roughnessFactor":1.0
		},
		"normalTexture":{
			"index":2,
			"scale":1.0
		},
		"emissiveFactor":[0.0,
		0.0,
		0.0],
		"alphaMode":"OPAQUE",
		"doubleSided":true,
		"name":"keep_human_floor_01"
	},
	{
		"pbrMetallicRoughness":{
			"baseColorTexture":{
				"index":3
			},
			"baseColorFactor":[0.8,
			0.8,
			0.8,
			1.0],
			"metallicRoughnessTexture":{
				"index":4
			},
			"metallicFactor":0.0,
			"roughnessFactor":1.0
		},
		"normalTexture":{
			"index":5,
			"scale":1.0
		},
		"emissiveFactor":[0.0,
		0.0,
		0.0],
		"alphaMode":"OPAQUE",
		"doubleSided":true,
		"name":"keep_human_wall_01"
	},
	{
		"pbrMetallicRoughness":{
			"baseColorTexture":{
				"index":6
			},
			"baseColorFactor":[0.8,
			0.8,
			0.8,
			1.0],
			"metallicRoughnessTexture":{
				"index":7
			},
			"metallicFactor":0.0,
			"roughnessFactor":1.0
		},
		"normalTexture":{
			"index":8,
			"scale":1.0
		},
		"emissiveFactor":[0.0,
		0.0,
		0.0],
		"alphaMode":"OPAQUE",
		"doubleSided":true,
		"name":"keep_human_tower_01"
	},
	{
		"pbrMetallicRoughness":{
			"baseColorTexture":{
				"index":9
			},
			"baseColorFactor":[0.8,
			0.8,
			0.8,
			1.0],
			"metallicRoughnessTexture":{
				"index":10
			},
			"metallicFactor":0.0,
			"roughnessFactor":1.0
		},
		"normalTexture":{
			"index":11,
			"scale":1.0
		},
		"emissiveFactor":[0.0,
		0.0,
		0.0],
		"alphaMode":"OPAQUE",
		"doubleSided":true,
		"name":"castle_human_wall_01"
	},
	{
		"pbrMetallicRoughness":{
			"baseColorTexture":{
				"index":12
			},
			"baseColorFactor":[0.8,
			0.8,
			0.8,
			1.0],
			"metallicRoughnessTexture":{
				"index":13
			},
			"metallicFactor":0.0,
			"roughnessFactor":1.0
		},
		"normalTexture":{
			"index":14,
			"scale":1.0
		},
		"emissiveFactor":[0.0,
		0.0,
		0.0],
		"alphaMode":"OPAQUE",
		"doubleSided":true,
		"name":"castle_human_tower_01"
	}]
}