{
	"asset":{
		"version":"2.0",
		"generator":"Created using the official Cinema 4D glTF Exporter 1.000x284978"
	},
	"images":[{
		"uri":"data:image/jpeg;base64,"
	}],
	"scenes":[{
		"nodes":[0]
	}],
	"nodes":[{
		"name":"Castle_V04_singlemesh",
		"children":[1,
		2,
		3,
		4,
		5]
	},
	{
		"name":"Keep_placeholder_floor_01",
		"mesh":0
	},
	{
		"name":"Keep_placeholder_wall_01",
		"mesh":1
	},
	{
		"name":"Keep_placeholder_tower_01",
		"mesh":2
	},
	{
		"name":"Castle_placeholder_wall_01",
		"mesh":3
	},
	{
		"name":"Castle_placeholder_tower_01",
		"mesh":4
	}],
	"materials":[{
		"pbrMetallicRoughness":{
			"baseColorTexture":{
				"index":0
			},
			"baseColorFactor":[0.8,
			0.8,
			0.8,
			1.0],
			"metallicFactor":0.0,
			"roughnessFactor":0.5
		},
		"emissiveFactor":[0.0,
		0.0,
		0.0],
		"alphaMode":"OPAQUE",
		"doubleSided":false,
		"name":"Castle_Human_02-AirTight"
	}],
	"meshes":[{
		"name":"Keep_placeholder_floor_01",
		"primitives":[{
			"attributes":{
				"POSITION":1,
				"NORMAL":2,
				"TEXCOORD_0":3
			},
			"indices":0,
			"material":0
		}]
	},
	{
		"name":"Keep_placeholder_wall_01",
		"primitives":[{
			"attributes":{
				"POSITION":5,
				"NORMAL":6,
				"TEXCOORD_0":7
			},
			"indices":4,
			"material":0
		}]
	},
	{
		"name":"Keep_placeholder_tower_01",
		"primitives":[{
			"attributes":{
				"POSITION":9,
				"NORMAL":10,
				"TEXCOORD_0":11
			},
			"indices":8,
			"material":0
		}]
	},
	{
		"name":"Castle_placeholder_wall_01",
		"primitives":[{
			"attributes":{
				"POSITION":13,
				"NORMAL":14,
				"TEXCOORD_0":15
			},
			"indices":12,
			"material":0
		}]
	},
	{
		"name":"Castle_placeholder_tower_01",
		"primitives":[{
			"attributes":{
				"POSITION":17,
				"NORMAL":18,
				"TEXCOORD_0":19
			},
			"indices":16,
			"material":0
		}]
	}],
	"accessors":[{
		"bufferView":0,
		"type":"SCALAR",
		"componentType":5123,
		"count":18,
		"byteOffset":0,
		"min":[0],
		"max":[6]
	},
	{
		"bufferView":1,
		"type":"VEC3",
		"componentType":5126,
		"count":7,
		"byteOffset":0,
		"min":[-4.330127239227295,
		0.10000000149011612,
		-5.0],
		"max":[4.330127239227295,
		0.10000000149011612,
		5.0]
	},
	{
		"bufferView":1,
		"type":"VEC3",
		"componentType":5126,
		"count":7,
		"byteOffset":12,
		"min":[0.0,
		1.0,
		0.0],
		"max":[0.0,
		1.0,
		0.0]
	},
	{
		"bufferView":1,
		"type":"VEC2",
		"componentType":5126,
		"count":7,
		"byteOffset":24,
		"min":[0.6561458110809326,
		0.6026395559310913],
		"max":[0.9861701726913452,
		0.9948234558105469]
	},
	{
		"bufferView":2,
		"type":"SCALAR",
		"componentType":5123,
		"count":330,
		"byteOffset":0,
		"min":[0],
		"max":[183]
	},
	{
		"bufferView":3,
		"type":"VEC3",
		"componentType":5126,
		"count":184,
		"byteOffset":0,
		"min":[-0.6598076224327087,
		-10.0,
		-2.6500000953674318],
		"max":[0.3098076283931732,
		4.0,
		2.6500000953674318]
	},
	{
		"bufferView":3,
		"type":"VEC3",
		"componentType":5126,
		"count":184,
		"byteOffset":12,
		"min":[-1.0,
		-1.0,
		-1.0],
		"max":[1.0,
		1.0,
		1.0]
	},
	{
		"bufferView":3,
		"type":"VEC2",
		"componentType":5126,
		"count":184,
		"byteOffset":24,
		"min":[0.46636760234832766,
		0.005176544189453125],
		"max":[0.9620851278305054,
		0.6136418581008911]
	},
	{
		"bufferView":4,
		"type":"SCALAR",
		"componentType":5123,
		"count":210,
		"byteOffset":0,
		"min":[0],
		"max":[115]
	},
	{
		"bufferView":5,
		"type":"VEC3",
		"componentType":5126,
		"count":116,
		"byteOffset":0,
		"min":[-0.783268928527832,
		-10.0,
		-0.783268928527832],
		"max":[0.783268928527832,
		5.843863487243652,
		0.783268928527832]
	},
	{
		"bufferView":5,
		"type":"VEC3",
		"componentType":5126,
		"count":116,
		"byteOffset":12,
		"min":[-1.0,
		-1.0,
		-1.0],
		"max":[1.0,
		1.0,
		1.0]
	},
	{
		"bufferView":5,
		"type":"VEC2",
		"componentType":5126,
		"count":116,
		"byteOffset":24,
		"min":[0.01435915194451809,
		0.6239938735961914],
		"max":[0.6051433086395264,
		0.9656693935394287]
	},
	{
		"bufferView":6,
		"type":"SCALAR",
		"componentType":5123,
		"count":180,
		"byteOffset":0,
		"min":[0],
		"max":[83]
	},
	{
		"bufferView":7,
		"type":"VEC3",
		"componentType":5126,
		"count":84,
		"byteOffset":0,
		"min":[-0.6598076224327087,
		-10.0,
		-2.6500000953674318],
		"max":[0.3098076283931732,
		1.7999999523162842,
		2.6500000953674318]
	},
	{
		"bufferView":7,
		"type":"VEC3",
		"componentType":5126,
		"count":84,
		"byteOffset":12,
		"min":[-1.0,
		-1.0,
		-1.0],
		"max":[1.0,
		1.0,
		1.0]
	},
	{
		"bufferView":7,
		"type":"VEC2",
		"componentType":5126,
		"count":84,
		"byteOffset":24,
		"min":[0.005176544189453125,
		0.01571478322148323],
		"max":[0.45601600408554079,
		0.5545929670333862]
	},
	{
		"bufferView":8,
		"type":"SCALAR",
		"componentType":5123,
		"count":204,
		"byteOffset":0,
		"min":[0],
		"max":[112]
	},
	{
		"bufferView":9,
		"type":"VEC3",
		"componentType":5126,
		"count":113,
		"byteOffset":0,
		"min":[-0.44999998807907107,
		-10.0,
		-0.44999998807907107],
		"max":[0.44999998807907107,
		2.5,
		0.44999998807907107]
	},
	{
		"bufferView":9,
		"type":"VEC3",
		"componentType":5126,
		"count":113,
		"byteOffset":12,
		"min":[-1.0,
		-1.0,
		-1.0],
		"max":[1.0,
		1.0,
		1.0]
	},
	{
		"bufferView":9,
		"type":"VEC2",
		"componentType":5126,
		"count":113,
		"byteOffset":24,
		"min":[0.15482023358345033,
		0.8221111297607422],
		"max":[0.6457927227020264,
		0.9866628646850586]
	}],
	"bufferViews":[{
		"buffer":0,
		"byteOffset":0,
		"byteLength":36,
		"target":34963
	},
	{
		"buffer":0,
		"byteOffset":36,
		"byteLength":224,
		"target":34962,
		"byteStride":32
	},
	{
		"buffer":1,
		"byteOffset":0,
		"byteLength":660,
		"target":34963
	},
	{
		"buffer":1,
		"byteOffset":660,
		"byteLength":5888,
		"target":34962,
		"byteStride":32
	},
	{
		"buffer":2,
		"byteOffset":0,
		"byteLength":420,
		"target":34963
	},
	{
		"buffer":2,
		"byteOffset":420,
		"byteLength":3712,
		"target":34962,
		"byteStride":32
	},
	{
		"buffer":3,
		"byteOffset":0,
		"byteLength":360,
		"target":34963
	},
	{
		"buffer":3,
		"byteOffset":360,
		"byteLength":2688,
		"target":34962,
		"byteStride":32
	},
	{
		"buffer":4,
		"byteOffset":0,
		"byteLength":408,
		"target":34963
	},
	{
		"buffer":4,
		"byteOffset":408,
		"byteLength":3616,
		"target":34962,
		"byteStride":32
	}],
	"buffers":[{
		"uri":"data:application/octet-stream;base64,",
		"byteLength":260
	},
	{
		"uri":"data:application/octet-stream;base64,",
		"byteLength":6548
	},
	{
		"uri":"data:application/octet-stream;base64,",
		"byteLength":4132
	},
	{
		"uri":"data:application/octet-stream;base64,",
		"byteLength":3048
	},
	{
		"uri":"data:application/octet-stream;base64,",
		"byteLength":4024
	}],
	"samplers":[{
		"magFilter":9729,
		"minFilter":9729,
		"wrapS":10497,
		"wrapT":10497
	}],
	"textures":[{
		"sampler":0,
		"source":0
	}]
}