{
	"asset":{
		"version":"2.0",
		"generator":"Created using the official Cinema 4D glTF Exporter 1.000x284978"
	},
	"scenes":[{
		"nodes":[0]
	}],
	"nodes":[{
		"name":"castle_human_V01_cartoony",
		"children":[1,
		2,
		5,
		7,
		9]
	},
	{
		"name":"Keep_human_floor_01",
		"mesh":0
	},
	{
		"name":"Keep_human_wall_01",
		"mesh":1,
		"children":[3,
		4]
	},
	{
		"name":"deco",
		"mesh":2
	},
	{
		"name":"crenelation",
		"translation":[0.05980762094259262,
		3.5999999046325685,
		0.0],
		"rotation":[0.0,
		0.0,
		0.0,
		-1.0],
		"scale":[1.0,
		1.0,
		1.0],
		"mesh":3
	},
	{
		"name":"Keep_human_tower_01",
		"mesh":4,
		"children":[6]
	},
	{
		"name":"deco",
		"mesh":5
	},
	{
		"name":"Castle_human_wall_01",
		"mesh":6,
		"children":[8]
	},
	{
		"name":"crenelation",
		"translation":[0.05980762094259262,
		1.7999999523162842,
		0.0],
		"rotation":[0.0,
		0.0,
		0.0,
		-1.0],
		"scale":[1.0,
		1.0,
		1.0],
		"mesh":7
	},
	{
		"name":"Castle_human_tower_01",
		"mesh":8
	}],
	"meshes":[{
		"name":"Keep_human_floor_01",
		"primitives":[{
			"attributes":{
				"POSITION":1,
				"NORMAL":2,
				"TEXCOORD_0":3
			},
			"indices":0
		}]
	},
	{
		"name":"Keep_human_wall_01",
		"primitives":[{
			"attributes":{
				"POSITION":5,
				"NORMAL":6,
				"TEXCOORD_0":7
			},
			"indices":4
		}]
	},
	{
		"name":"deco",
		"primitives":[{
			"attributes":{
				"POSITION":9,
				"NORMAL":10,
				"TEXCOORD_0":11
			},
			"indices":8
		}]
	},
	{
		"name":"crenelation",
		"primitives":[{
			"attributes":{
				"POSITION":13,
				"NORMAL":14,
				"TEXCOORD_0":15
			},
			"indices":12
		}]
	},
	{
		"name":"Keep_human_tower_01",
		"primitives":[{
			"attributes":{
				"POSITION":17,
				"NORMAL":18,
				"TEXCOORD_0":19
			},
			"indices":16
		}]
	},
	{
		"name":"deco",
		"primitives":[{
			"attributes":{
				"POSITION":21,
				"NORMAL":22,
				"TEXCOORD_0":23
			},
			"indices":20
		}]
	},
	{
		"name":"Castle_human_wall_01",
		"primitives":[{
			"attributes":{
				"POSITION":25,
				"NORMAL":26,
				"TEXCOORD_0":27
			},
			"indices":24
		}]
	},
	{
		"name":"crenelation",
		"primitives":[{
			"attributes":{
				"POSITION":29,
				"NORMAL":30,
				"TEXCOORD_0":31
			},
			"indices":28
		}]
	},
	{
		"name":"Castle_human_tower_01",
		"primitives":[{
			"attributes":{
				"POSITION":33,
				"NORMAL":34,
				"TEXCOORD_0":35
			},
			"indices":32
		}]
	}],
	"accessors":[{
		"bufferView":0,
		"type":"SCALAR",
		"componentType":5123,
		"count":54,
		"min":[0],
		"byteOffset":0,
		"max":[12]
	},
	{
		"bufferView":1,
		"type":"VEC3",
		"componentType":5126,
		"count":13,
		"min":[-4.330127239227295,
		0.0,
		-5.0],
		"byteOffset":0,
		"max":[4.330127239227295,
		0.0,
		5.0]
	},
	{
		"bufferView":1,
		"type":"VEC3",
		"componentType":5126,
		"count":13,
		"min":[0.0,
		1.0,
		0.0],
		"byteOffset":12,
		"max":[0.0,
		1.0,
		0.0]
	},
	{
		"bufferView":1,
		"type":"VEC2",
		"componentType":5126,
		"count":13,
		"min":[0.07167372107505799,
		0.005411445163190365],
		"byteOffset":24,
		"max":[0.9283262491226196,
		0.9945884943008423]
	},
	{
		"bufferView":2,
		"type":"SCALAR",
		"componentType":5123,
		"count":192,
		"min":[0],
		"byteOffset":0,
		"max":[152]
	},
	{
		"bufferView":3,
		"type":"VEC3",
		"componentType":5126,
		"count":153,
		"min":[-0.46000000834465029,
		-6.0,
		-2.765470027923584],
		"byteOffset":0,
		"max":[0.4598076343536377,
		3.5999999046325685,
		2.765470027923584]
	},
	{
		"bufferView":3,
		"type":"VEC3",
		"componentType":5126,
		"count":153,
		"min":[-1.0,
		-1.0,
		-0.8660255074501038],
		"byteOffset":12,
		"max":[1.0,
		1.0,
		0.8660255074501038]
	},
	{
		"bufferView":3,
		"type":"VEC2",
		"componentType":5126,
		"count":153,
		"min":[0.006623577326536179,
		0.10639385879039765],
		"byteOffset":24,
		"max":[0.9692623019218445,
		0.984420895576477]
	},
	{
		"bufferView":4,
		"type":"SCALAR",
		"componentType":5123,
		"count":30,
		"min":[0],
		"byteOffset":0,
		"max":[19]
	},
	{
		"bufferView":5,
		"type":"VEC3",
		"componentType":5126,
		"count":20,
		"min":[0.25980761647224429,
		3.0999999046325685,
		-2.7077372074127199],
		"byteOffset":0,
		"max":[0.36000001430511477,
		3.299999952316284,
		2.707846164703369]
	},
	{
		"bufferView":5,
		"type":"VEC3",
		"componentType":5126,
		"count":20,
		"min":[-0.5,
		-1.0,
		-0.8664332032203674],
		"byteOffset":12,
		"max":[1.0,
		1.0,
		0.8660255074501038]
	},
	{
		"bufferView":5,
		"type":"VEC2",
		"componentType":5126,
		"count":20,
		"min":[0.4108119308948517,
		0.024981632828712465],
		"byteOffset":24,
		"max":[0.9732057452201843,
		0.0648614913225174]
	},
	{
		"bufferView":6,
		"type":"SCALAR",
		"componentType":5123,
		"count":150,
		"min":[0],
		"byteOffset":0,
		"max":[99]
	},
	{
		"bufferView":7,
		"type":"VEC3",
		"componentType":5126,
		"count":100,
		"min":[-0.20000000298023225,
		-5.684341759025859e-16,
		-2.299999952316284],
		"byteOffset":0,
		"max":[0.20000000298023225,
		0.4000000059604645,
		2.299999952316284]
	},
	{
		"bufferView":7,
		"type":"VEC3",
		"componentType":5126,
		"count":100,
		"min":[-1.0,
		-0.07478994876146317,
		-0.9971993565559387],
		"byteOffset":12,
		"max":[1.0,
		1.0,
		0.9971993565559387]
	},
	{
		"bufferView":7,
		"type":"VEC2",
		"componentType":5126,
		"count":100,
		"min":[0.021994926035404207,
		0.02831536903977394],
		"byteOffset":24,
		"max":[0.522321343421936,
		0.1401381492614746]
	},
	{
		"bufferView":8,
		"type":"SCALAR",
		"componentType":5123,
		"count":162,
		"min":[0],
		"byteOffset":0,
		"max":[79]
	},
	{
		"bufferView":9,
		"type":"VEC3",
		"componentType":5126,
		"count":80,
		"min":[-0.9298221468925476,
		-6.0,
		-0.9298221468925476],
		"byteOffset":0,
		"max":[0.9298221468925476,
		6.245201110839844,
		0.9298221468925476]
	},
	{
		"bufferView":9,
		"type":"VEC3",
		"componentType":5126,
		"count":80,
		"min":[-0.9999896883964539,
		-1.0,
		-0.9999896883964539],
		"byteOffset":12,
		"max":[0.9999896883964539,
		0.7474094033241272,
		0.9999896287918091]
	},
	{
		"bufferView":9,
		"type":"VEC2",
		"componentType":5126,
		"count":80,
		"min":[0.011898629367351532,
		0.004911663942039013],
		"byteOffset":24,
		"max":[0.8465367555618286,
		0.9950883388519287]
	},
	{
		"bufferView":10,
		"type":"SCALAR",
		"componentType":5123,
		"count":72,
		"min":[0],
		"byteOffset":0,
		"max":[43]
	},
	{
		"bufferView":11,
		"type":"VEC3",
		"componentType":5126,
		"count":44,
		"min":[-0.75,
		3.0999999046325685,
		-0.75],
		"byteOffset":0,
		"max":[0.75,
		3.299999952316284,
		0.75]
	},
	{
		"bufferView":11,
		"type":"VEC3",
		"componentType":5126,
		"count":44,
		"min":[-1.0,
		-1.0,
		-1.0],
		"byteOffset":12,
		"max":[1.0,
		1.0,
		1.0]
	},
	{
		"bufferView":11,
		"type":"VEC2",
		"componentType":5126,
		"count":44,
		"min":[0.7180415391921997,
		0.1954847276210785],
		"byteOffset":24,
		"max":[0.9599964022636414,
		0.23593586683273316]
	},
	{
		"bufferView":12,
		"type":"SCALAR",
		"componentType":5123,
		"count":192,
		"min":[0],
		"byteOffset":0,
		"max":[77]
	},
	{
		"bufferView":13,
		"type":"VEC3",
		"componentType":5126,
		"count":78,
		"min":[-0.46000000834465029,
		-6.0,
		-2.765470027923584],
		"byteOffset":0,
		"max":[0.4598076343536377,
		1.7999999523162842,
		2.765470027923584]
	},
	{
		"bufferView":13,
		"type":"VEC3",
		"componentType":5126,
		"count":78,
		"min":[-1.0,
		-1.0,
		-0.8660255670547485],
		"byteOffset":12,
		"max":[1.0,
		1.0,
		0.8660255670547485]
	},
	{
		"bufferView":13,
		"type":"VEC2",
		"componentType":5126,
		"count":78,
		"min":[0.004142608493566513,
		0.22533461451530457],
		"byteOffset":24,
		"max":[0.9945328235626221,
		0.9921668767929077]
	},
	{
		"bufferView":14,
		"type":"SCALAR",
		"componentType":5123,
		"count":150,
		"min":[0],
		"byteOffset":0,
		"max":[99]
	},
	{
		"bufferView":15,
		"type":"VEC3",
		"componentType":5126,
		"count":100,
		"min":[-0.20000000298023225,
		-5.684341759025859e-16,
		-2.299999952316284],
		"byteOffset":0,
		"max":[0.20000000298023225,
		0.30000001192092898,
		2.299999952316284]
	},
	{
		"bufferView":15,
		"type":"VEC3",
		"componentType":5126,
		"count":100,
		"min":[-1.0,
		-0.09950373321771622,
		-0.9950372576713562],
		"byteOffset":12,
		"max":[1.0,
		1.0,
		0.9950372576713562]
	},
	{
		"bufferView":15,
		"type":"VEC2",
		"componentType":5126,
		"count":100,
		"min":[0.4076826274394989,
		0.04012737423181534],
		"byteOffset":24,
		"max":[0.9724737405776978,
		0.19015833735466004]
	},
	{
		"bufferView":16,
		"type":"SCALAR",
		"componentType":5123,
		"count":156,
		"min":[0],
		"byteOffset":0,
		"max":[92]
	},
	{
		"bufferView":17,
		"type":"VEC3",
		"componentType":5126,
		"count":93,
		"min":[-0.6000000238418579,
		-6.0,
		-0.6000000238418579],
		"byteOffset":0,
		"max":[0.6000000238418579,
		2.799999952316284,
		0.6000000238418579]
	},
	{
		"bufferView":17,
		"type":"VEC3",
		"componentType":5126,
		"count":93,
		"min":[-1.0,
		-1.0,
		-1.0],
		"byteOffset":12,
		"max":[1.0,
		1.0,
		1.0]
	},
	{
		"bufferView":17,
		"type":"VEC2",
		"componentType":5126,
		"count":93,
		"min":[0.13391843438148499,
		0.006180545315146446],
		"byteOffset":24,
		"max":[0.8150219917297363,
		0.9938194751739502]
	}],
	"bufferViews":[{
		"buffer":0,
		"byteOffset":0,
		"byteLength":108,
		"target":34963
	},
	{
		"buffer":0,
		"byteOffset":108,
		"byteLength":416,
		"target":34962,
		"byteStride":32
	},
	{
		"buffer":1,
		"byteOffset":0,
		"byteLength":384,
		"target":34963
	},
	{
		"buffer":1,
		"byteOffset":384,
		"byteLength":4896,
		"target":34962,
		"byteStride":32
	},
	{
		"buffer":2,
		"byteOffset":0,
		"byteLength":60,
		"target":34963
	},
	{
		"buffer":2,
		"byteOffset":60,
		"byteLength":640,
		"target":34962,
		"byteStride":32
	},
	{
		"buffer":3,
		"byteOffset":0,
		"byteLength":300,
		"target":34963
	},
	{
		"buffer":3,
		"byteOffset":300,
		"byteLength":3200,
		"target":34962,
		"byteStride":32
	},
	{
		"buffer":4,
		"byteOffset":0,
		"byteLength":324,
		"target":34963
	},
	{
		"buffer":4,
		"byteOffset":324,
		"byteLength":2560,
		"target":34962,
		"byteStride":32
	},
	{
		"buffer":5,
		"byteOffset":0,
		"byteLength":144,
		"target":34963
	},
	{
		"buffer":5,
		"byteOffset":144,
		"byteLength":1408,
		"target":34962,
		"byteStride":32
	},
	{
		"buffer":6,
		"byteOffset":0,
		"byteLength":384,
		"target":34963
	},
	{
		"buffer":6,
		"byteOffset":384,
		"byteLength":2496,
		"target":34962,
		"byteStride":32
	},
	{
		"buffer":7,
		"byteOffset":0,
		"byteLength":300,
		"target":34963
	},
	{
		"buffer":7,
		"byteOffset":300,
		"byteLength":3200,
		"target":34962,
		"byteStride":32
	},
	{
		"buffer":8,
		"byteOffset":0,
		"byteLength":312,
		"target":34963
	},
	{
		"buffer":8,
		"byteOffset":312,
		"byteLength":2976,
		"target":34962,
		"byteStride":32
	}],
	"buffers":[{
		"uri":"data:application/octet-stream;base64,",
		"byteLength":524
	},
	{
		"uri":"data:application/octet-stream;base64,",
		"byteLength":5280
	},
	{
		"uri":"data:application/octet-stream;base64,",
		"byteLength":700
	},
	{
		"uri":"data:application/octet-stream;base64,",
		"byteLength":3500
	},
	{
		"uri":"data:application/octet-stream;base64,",
		"byteLength":2884
	},
	{
		"uri":"data:application/octet-stream;base64,",
		"byteLength":1552
	},
	{
		"uri":"data:application/octet-stream;base64,",
		"byteLength":2880
	},
	{
		"uri":"data:application/octet-stream;base64,",
		"byteLength":3500
	},
	{
		"uri":"data:application/octet-stream;base64,",
		"byteLength":3288
	}]
}