{
	"nodes":[{
		"name":"Village_human_small_center_05",
		"mesh":0
	},
	{
		"name":"Village_human_small_center_04",
		"mesh":1
	},
	{
		"name":"Village_human_small_center_03",
		"mesh":2
	},
	{
		"name":"Village_human_small_center_02",
		"mesh":3
	},
	{
		"name":"Village_human_small_center_01",
		"mesh":4
	},
	{
		"name":"Village_human_small_05",
		"mesh":5
	},
	{
		"name":"Village_human_small_04",
		"mesh":6
	},
	{
		"name":"Village_human_small_03",
		"mesh":7
	},
	{
		"name":"Village_human_small_02",
		"mesh":8
	},
	{
		"name":"Village_human_small_01",
		"mesh":9
	},
	{
		"scale":[1.0,
		1.0,
		1.0],
		"name":"Village_human_hall_01",
		"rotation":[0.0,
		0.13052618503570558,
		0.0,
		-0.9914448857307434],
		"translation":[-0.4381341338157654,
		0.0,
		0.08965754508972168],
		"mesh":10
	}],
	"asset":{
		"version":"2.0",
		"generator":"Created using the official Cinema 4D glTF Exporter 1.000x284978"
	},
	"images":[{
		"uri":"data:image/jpeg;base64,"
	},
	{
		"uri":"data:image/jpeg;base64,"
	},
	{
		"uri":"data:image/jpeg;base64,"
	},
	{
		"uri":"data:image/jpeg;base64,"
	},
	{
		"uri":"data:image/jpeg;base64,"
	},
	{
		"uri":"data:image/jpeg;base64,"
	}],
	"scenes":[{
		"nodes":[0,
		1,
		2,
		3,
		4,
		5,
		6,
		7,
		8,
		9,
		10]
	}],
	"materials":[{
		"normalTexture":{
			"index":2,
			"scale":1.0
		},
		"pbrMetallicRoughness":{
			"baseColorTexture":{
				"index":0
			},
			"baseColorFactor":[0.8,
			0.8,
			0.8,
			1.0],
			"metallicRoughnessTexture":{
				"index":1
			},
			"metallicFactor":0.0,
			"roughnessFactor":1.0
		},
		"emissiveFactor":[0.0,
		0.0,
		0.0],
		"alphaMode":"OPAQUE",
		"doubleSided":true,
		"name":"Village_human_houses_01"
	},
	{
		"normalTexture":{
			"index":5,
			"scale":1.0
		},
		"pbrMetallicRoughness":{
			"baseColorTexture":{
				"index":3
			},
			"baseColorFactor":[0.8,
			0.8,
			0.8,
			1.0],
			"metallicRoughnessTexture":{
				"index":4
			},
			"metallicFactor":0.0,
			"roughnessFactor":1.0
		},
		"emissiveFactor":[0.0,
		0.0,
		0.0],
		"alphaMode":"OPAQUE",
		"doubleSided":true,
		"name":"Village_human_hall_01"
	}],
	"meshes":[{
		"name":"Village_human_small_center_05",
		"primitives":[{
			"attributes":{
				"POSITION":1,
				"NORMAL":2,
				"TEXCOORD_0":3
			},
			"indices":0,
			"material":0
		}]
	},
	{
		"name":"Village_human_small_center_04",
		"primitives":[{
			"attributes":{
				"POSITION":5,
				"NORMAL":6,
				"TEXCOORD_0":7
			},
			"indices":4,
			"material":0
		}]
	},
	{
		"name":"Village_human_small_center_03",
		"primitives":[{
			"attributes":{
				"POSITION":9,
				"NORMAL":10,
				"TEXCOORD_0":11
			},
			"indices":8,
			"material":0
		}]
	},
	{
		"name":"Village_human_small_center_02",
		"primitives":[{
			"attributes":{
				"POSITION":13,
				"NORMAL":14,
				"TEXCOORD_0":15
			},
			"indices":12,
			"material":0
		}]
	},
	{
		"name":"Village_human_small_center_01",
		"primitives":[{
			"attributes":{
				"POSITION":17,
				"NORMAL":18,
				"TEXCOORD_0":19
			},
			"indices":16,
			"material":0
		}]
	},
	{
		"name":"Village_human_small_05",
		"primitives":[{
			"attributes":{
				"POSITION":21,
				"NORMAL":22,
				"TEXCOORD_0":23
			},
			"indices":20,
			"material":0
		}]
	},
	{
		"name":"Village_human_small_04",
		"primitives":[{
			"attributes":{
				"POSITION":25,
				"NORMAL":26,
				"TEXCOORD_0":27
			},
			"indices":24,
			"material":0
		}]
	},
	{
		"name":"Village_human_small_03",
		"primitives":[{
			"attributes":{
				"POSITION":29,
				"NORMAL":30,
				"TEXCOORD_0":31
			},
			"indices":28,
			"material":0
		}]
	},
	{
		"name":"Village_human_small_02",
		"primitives":[{
			"attributes":{
				"POSITION":33,
				"NORMAL":34,
				"TEXCOORD_0":35
			},
			"indices":32,
			"material":0
		}]
	},
	{
		"name":"Village_human_small_01",
		"primitives":[{
			"attributes":{
				"POSITION":37,
				"NORMAL":38,
				"TEXCOORD_0":39
			},
			"indices":36,
			"material":0
		}]
	},
	{
		"name":"Village_human_hall_01",
		"primitives":[{
			"attributes":{
				"POSITION":41,
				"NORMAL":42,
				"TEXCOORD_0":43
			},
			"indices":40,
			"material":1
		}]
	}],
	"accessors":[{
		"bufferView":0,
		"type":"SCALAR",
		"componentType":5123,
		"count":1116,
		"byteOffset":0,
		"min":[0],
		"max":[585]
	},
	{
		"bufferView":1,
		"type":"VEC3",
		"componentType":5126,
		"count":586,
		"byteOffset":0,
		"min":[-1.5312379598617554,
		-6.350475467921835e-16,
		-1.7208870649337769],
		"max":[1.4042341709136963,
		0.9861319661140442,
		1.4357495307922364]
	},
	{
		"bufferView":1,
		"type":"VEC3",
		"componentType":5126,
		"count":586,
		"byteOffset":12,
		"min":[-0.997604250907898,
		-1.0,
		-0.9938539862632752],
		"max":[0.997604250907898,
		0.9998235702514648,
		0.9938539862632752]
	},
	{
		"bufferView":1,
		"type":"VEC2",
		"componentType":5126,
		"count":586,
		"byteOffset":24,
		"min":[0.1462319791316986,
		0.059375129640102389],
		"max":[0.9587353467941284,
		0.9902356863021851]
	},
	{
		"bufferView":2,
		"type":"SCALAR",
		"componentType":5123,
		"count":930,
		"byteOffset":0,
		"min":[0],
		"max":[474]
	},
	{
		"bufferView":3,
		"type":"VEC3",
		"componentType":5126,
		"count":475,
		"byteOffset":0,
		"min":[-1.287511944770813,
		-7.160938297074023e-17,
		-1.2972639799118043],
		"max":[1.2386270761489869,
		0.9861319661140442,
		1.460830807685852]
	},
	{
		"bufferView":3,
		"type":"VEC3",
		"componentType":5126,
		"count":475,
		"byteOffset":12,
		"min":[-1.0,
		-1.0,
		-1.0],
		"max":[1.0,
		1.0,
		1.0]
	},
	{
		"bufferView":3,
		"type":"VEC2",
		"componentType":5126,
		"count":475,
		"byteOffset":24,
		"min":[0.010620756074786187,
		0.03700828552246094],
		"max":[0.9941719770431519,
		0.9927247762680054]
	},
	{
		"bufferView":4,
		"type":"SCALAR",
		"componentType":5123,
		"count":1020,
		"byteOffset":0,
		"min":[0],
		"max":[449]
	},
	{
		"bufferView":5,
		"type":"VEC3",
		"componentType":5126,
		"count":450,
		"byteOffset":0,
		"min":[-1.4656028747558594,
		-7.772993187452548e-16,
		-1.7203314304351807],
		"max":[1.916813850402832,
		0.9727907180786133,
		1.5655475854873658]
	},
	{
		"bufferView":5,
		"type":"VEC3",
		"componentType":5126,
		"count":450,
		"byteOffset":12,
		"min":[-0.8651710748672485,
		-1.0,
		-0.862829327583313],
		"max":[0.8660385608673096,
		0.9996684193611145,
		0.862829327583313]
	},
	{
		"bufferView":5,
		"type":"VEC2",
		"componentType":5126,
		"count":450,
		"byteOffset":24,
		"min":[0.00760852824896574,
		0.005827944725751877],
		"max":[0.9726047515869141,
		0.9849872589111328]
	},
	{
		"bufferView":6,
		"type":"SCALAR",
		"componentType":5123,
		"count":1008,
		"byteOffset":0,
		"min":[0],
		"max":[534]
	},
	{
		"bufferView":7,
		"type":"VEC3",
		"componentType":5126,
		"count":535,
		"byteOffset":0,
		"min":[-0.5275024771690369,
		-7.105427198782324e-17,
		-1.2975767850875855],
		"max":[1.2692545652389527,
		0.926175057888031,
		1.3585600852966309]
	},
	{
		"bufferView":7,
		"type":"VEC3",
		"componentType":5126,
		"count":535,
		"byteOffset":12,
		"min":[-0.9986487030982971,
		-1.0,
		-0.9979910850524902],
		"max":[0.9990075826644898,
		0.9998235702514648,
		0.9981132745742798]
	},
	{
		"bufferView":7,
		"type":"VEC2",
		"componentType":5126,
		"count":535,
		"byteOffset":24,
		"min":[0.0409659743309021,
		0.16618788242340089],
		"max":[0.9820477962493897,
		0.9938000440597534]
	},
	{
		"bufferView":8,
		"type":"SCALAR",
		"componentType":5123,
		"count":672,
		"byteOffset":0,
		"min":[0],
		"max":[303]
	},
	{
		"bufferView":9,
		"type":"VEC3",
		"componentType":5126,
		"count":304,
		"byteOffset":0,
		"min":[-1.2372019290924073,
		-1.18011200811452e-8,
		-1.512377381324768],
		"max":[0.8870963454246521,
		0.6902923583984375,
		1.4403367042541505]
	},
	{
		"bufferView":9,
		"type":"VEC3",
		"componentType":5126,
		"count":304,
		"byteOffset":12,
		"min":[-0.9985047578811646,
		-1.0,
		-0.9976043105125427],
		"max":[0.9633952379226685,
		0.7715461850166321,
		0.9908249378204346]
	},
	{
		"bufferView":9,
		"type":"VEC2",
		"componentType":5126,
		"count":304,
		"byteOffset":24,
		"min":[0.04215748608112335,
		0.01422843523323536],
		"max":[0.9587353467941284,
		0.9656407833099365]
	},
	{
		"bufferView":10,
		"type":"SCALAR",
		"componentType":5123,
		"count":2310,
		"byteOffset":0,
		"min":[0],
		"max":[1191]
	},
	{
		"bufferView":11,
		"type":"VEC3",
		"componentType":5126,
		"count":1192,
		"byteOffset":0,
		"min":[-3.3519163131713869,
		-6.12843107475504e-16,
		-3.639861583709717],
		"max":[3.440214157104492,
		0.9861319661140442,
		3.015202283859253]
	},
	{
		"bufferView":11,
		"type":"VEC3",
		"componentType":5126,
		"count":1192,
		"byteOffset":12,
		"min":[-1.0,
		-1.0,
		-1.0],
		"max":[1.0,
		1.0,
		1.0]
	},
	{
		"bufferView":11,
		"type":"VEC2",
		"componentType":5126,
		"count":1192,
		"byteOffset":24,
		"min":[0.005827944725751877,
		0.01593742147088051],
		"max":[0.9820477962493897,
		0.9938000440597534]
	},
	{
		"bufferView":12,
		"type":"SCALAR",
		"componentType":5123,
		"count":2382,
		"byteOffset":0,
		"min":[0],
		"max":[1215]
	},
	{
		"bufferView":13,
		"type":"VEC3",
		"componentType":5126,
		"count":1216,
		"byteOffset":0,
		"min":[-3.4224140644073488,
		-8.019226171995797e-9,
		-3.347043037414551],
		"max":[3.3402140140533449,
		0.9861319661140442,
		3.9507806301116945]
	},
	{
		"bufferView":13,
		"type":"VEC3",
		"componentType":5126,
		"count":1216,
		"byteOffset":12,
		"min":[-1.0,
		-1.0,
		-1.0],
		"max":[1.0,
		1.0,
		1.0]
	},
	{
		"bufferView":13,
		"type":"VEC2",
		"componentType":5126,
		"count":1216,
		"byteOffset":24,
		"min":[0.010620756074786187,
		0.016939550638198854],
		"max":[0.9941719770431519,
		0.9927247762680054]
	},
	{
		"bufferView":14,
		"type":"SCALAR",
		"componentType":5123,
		"count":2736,
		"byteOffset":0,
		"min":[0],
		"max":[1321]
	},
	{
		"bufferView":15,
		"type":"VEC3",
		"componentType":5126,
		"count":1322,
		"byteOffset":0,
		"min":[-3.3473002910614015,
		-4.6622172789057e-10,
		-3.9395813941955568],
		"max":[3.42551326751709,
		0.9727907180786133,
		3.793881893157959]
	},
	{
		"bufferView":15,
		"type":"VEC3",
		"componentType":5126,
		"count":1322,
		"byteOffset":12,
		"min":[-0.9998630285263062,
		-1.0,
		-1.0],
		"max":[0.9999745488166809,
		1.0,
		1.0]
	},
	{
		"bufferView":15,
		"type":"VEC2",
		"componentType":5126,
		"count":1322,
		"byteOffset":24,
		"min":[0.005827944725751877,
		0.005827944725751877],
		"max":[0.9793499708175659,
		0.9849872589111328]
	},
	{
		"bufferView":16,
		"type":"SCALAR",
		"componentType":5123,
		"count":3084,
		"byteOffset":0,
		"min":[0],
		"max":[1553]
	},
	{
		"bufferView":17,
		"type":"VEC3",
		"componentType":5126,
		"count":1554,
		"byteOffset":0,
		"min":[-3.3282432556152345,
		-6.394884875950786e-16,
		-3.640259265899658],
		"max":[3.3029019832611086,
		0.9727907180786133,
		3.4959373474121095]
	},
	{
		"bufferView":17,
		"type":"VEC3",
		"componentType":5126,
		"count":1554,
		"byteOffset":12,
		"min":[-0.9977084994316101,
		-1.0,
		-1.0],
		"max":[0.9997587203979492,
		1.0,
		1.0]
	},
	{
		"bufferView":17,
		"type":"VEC2",
		"componentType":5126,
		"count":1554,
		"byteOffset":24,
		"min":[0.00760852824896574,
		0.005827944725751877],
		"max":[0.9941719770431519,
		0.9938000440597534]
	},
	{
		"bufferView":18,
		"type":"SCALAR",
		"componentType":5123,
		"count":2928,
		"byteOffset":0,
		"min":[0],
		"max":[1453]
	},
	{
		"bufferView":19,
		"type":"VEC3",
		"componentType":5126,
		"count":1454,
		"byteOffset":0,
		"min":[-3.1871421337127687,
		-1.9372572879206019e-8,
		-3.321329355239868],
		"max":[3.1509146690368654,
		0.6902923583984375,
		3.670154571533203]
	},
	{
		"bufferView":19,
		"type":"VEC3",
		"componentType":5126,
		"count":1454,
		"byteOffset":12,
		"min":[-0.9999746084213257,
		-1.0,
		-1.0],
		"max":[0.9998629689216614,
		1.0,
		1.0]
	},
	{
		"bufferView":19,
		"type":"VEC2",
		"componentType":5126,
		"count":1454,
		"byteOffset":24,
		"min":[0.005827944725751877,
		0.01422843523323536],
		"max":[0.9793499708175659,
		0.9656407833099365]
	},
	{
		"bufferView":20,
		"type":"SCALAR",
		"componentType":5123,
		"count":1620,
		"byteOffset":0,
		"min":[0],
		"max":[825]
	},
	{
		"bufferView":21,
		"type":"VEC3",
		"componentType":5126,
		"count":826,
		"byteOffset":0,
		"min":[-1.2480000257492066,
		-9.94759834299305e-16,
		-1.6671737432479859],
		"max":[2.126819133758545,
		2.549999952316284,
		1.056969165802002]
	},
	{
		"bufferView":21,
		"type":"VEC3",
		"componentType":5126,
		"count":826,
		"byteOffset":12,
		"min":[-1.0,
		-1.0,
		-1.0],
		"max":[1.0,
		1.0,
		1.0]
	},
	{
		"bufferView":21,
		"type":"VEC2",
		"componentType":5126,
		"count":826,
		"byteOffset":24,
		"min":[0.00488730613142252,
		0.00488730613142252],
		"max":[0.9951126575469971,
		0.911636471748352]
	}],
	"bufferViews":[{
		"buffer":0,
		"byteOffset":0,
		"byteLength":2232,
		"target":34963
	},
	{
		"buffer":0,
		"byteOffset":2232,
		"byteLength":18752,
		"target":34962,
		"byteStride":32
	},
	{
		"buffer":1,
		"byteOffset":0,
		"byteLength":1860,
		"target":34963
	},
	{
		"buffer":1,
		"byteOffset":1860,
		"byteLength":15200,
		"target":34962,
		"byteStride":32
	},
	{
		"buffer":2,
		"byteOffset":0,
		"byteLength":2040,
		"target":34963
	},
	{
		"buffer":2,
		"byteOffset":2040,
		"byteLength":14400,
		"target":34962,
		"byteStride":32
	},
	{
		"buffer":3,
		"byteOffset":0,
		"byteLength":2016,
		"target":34963
	},
	{
		"buffer":3,
		"byteOffset":2016,
		"byteLength":17120,
		"target":34962,
		"byteStride":32
	},
	{
		"buffer":4,
		"byteOffset":0,
		"byteLength":1344,
		"target":34963
	},
	{
		"buffer":4,
		"byteOffset":1344,
		"byteLength":9728,
		"target":34962,
		"byteStride":32
	},
	{
		"buffer":5,
		"byteOffset":0,
		"byteLength":4620,
		"target":34963
	},
	{
		"buffer":5,
		"byteOffset":4620,
		"byteLength":38144,
		"target":34962,
		"byteStride":32
	},
	{
		"buffer":6,
		"byteOffset":0,
		"byteLength":4764,
		"target":34963
	},
	{
		"buffer":6,
		"byteOffset":4764,
		"byteLength":38912,
		"target":34962,
		"byteStride":32
	},
	{
		"buffer":7,
		"byteOffset":0,
		"byteLength":5472,
		"target":34963
	},
	{
		"buffer":7,
		"byteOffset":5472,
		"byteLength":42304,
		"target":34962,
		"byteStride":32
	},
	{
		"buffer":8,
		"byteOffset":0,
		"byteLength":6168,
		"target":34963
	},
	{
		"buffer":8,
		"byteOffset":6168,
		"byteLength":49728,
		"target":34962,
		"byteStride":32
	},
	{
		"buffer":9,
		"byteOffset":0,
		"byteLength":5856,
		"target":34963
	},
	{
		"buffer":9,
		"byteOffset":5856,
		"byteLength":46528,
		"target":34962,
		"byteStride":32
	},
	{
		"buffer":10,
		"byteOffset":0,
		"byteLength":3240,
		"target":34963
	},
	{
		"buffer":10,
		"byteOffset":3240,
		"byteLength":26432,
		"target":34962,
		"byteStride":32
	}],
	"buffers":[{
		"uri":"data:application/octet-stream;base64,",
		"byteLength":20984
	},
	{
		"uri":"data:application/octet-stream;base64,",
		"byteLength":17060
	},
	{
		"uri":"data:application/octet-stream;base64,",
		"byteLength":16440
	},
	{
		"uri":"data:application/octet-stream;base64,",
		"byteLength":19136
	},
	{
		"uri":"data:application/octet-stream;base64,",
		"byteLength":11072
	},
	{
		"uri":"data:application/octet-stream;base64,",
		"byteLength":42764
	},
	{
		"uri":"data:application/octet-stream;base64,",
		"byteLength":43676
	},
	{
		"uri":"data:application/octet-stream;base64,",
		"byteLength":47776
	},
	{
		"uri":"data:application/octet-stream;base64,",
		"byteLength":55896
	},
	{
		"uri":"data:application/octet-stream;base64,",
		"byteLength":52384
	},
	{
		"uri":"data:application/octet-stream;base64,",
		"byteLength":29672
	}],
	"samplers":[{
		"magFilter":9729,
		"minFilter":9729,
		"wrapS":10497,
		"wrapT":10497
	},
	{
		"magFilter":9729,
		"minFilter":9729,
		"wrapS":10497,
		"wrapT":10497
	},
	{
		"magFilter":9729,
		"minFilter":9729,
		"wrapS":10497,
		"wrapT":10497
	},
	{
		"magFilter":9729,
		"minFilter":9729,
		"wrapS":10497,
		"wrapT":10497
	},
	{
		"magFilter":9729,
		"minFilter":9729,
		"wrapS":10497,
		"wrapT":10497
	},
	{
		"magFilter":9729,
		"minFilter":9729,
		"wrapS":10497,
		"wrapT":10497
	}],
	"textures":[{
		"sampler":0,
		"source":0
	},
	{
		"sampler":1,
		"source":1
	},
	{
		"sampler":2,
		"source":2
	},
	{
		"sampler":3,
		"source":3
	},
	{
		"sampler":4,
		"source":4
	},
	{
		"sampler":5,
		"source":5
	}]
}